<?xml version="1.0" standalone="no"?>
<!DOCTYPE svg PUBLIC "-//W3C//DTD SVG 20010904//EN"
 "http://www.w3.org/TR/2001/REC-SVG-20010904/DTD/svg10.dtd">
<svg version="1.0" xmlns="http://www.w3.org/2000/svg"
 width="960.000000pt" height="720.000000pt" viewBox="0 0 960.000000 720.000000"
 preserveAspectRatio="xMidYMid meet">

<g transform="translate(0.000000,720.000000) scale(0.100000,-0.100000)"
fill="#000000" stroke="none">
<path d="M2644 7138 c3 -35 13 -128 21 -208 30 -301 39 -374 43 -362 2 7 -4
90 -12 185 -24 250 -24 253 -32 355 -4 51 -11 92 -17 92 -6 0 -7 -23 -3 -62z"/>
<path d="M155 7030 c-16 -4 -58 -8 -92 -9 l-63 -1 0 -35 0 -34 52 4 53 4 -52
-11 c-34 -7 -53 -16 -53 -25 0 -11 8 -13 28 -9 15 3 56 8 92 11 36 4 73 9 84
12 14 4 16 2 10 -8 -19 -31 -8 -59 17 -43 8 4 7 9 -2 15 -11 7 -10 9 4 9 9 0
17 7 17 16 0 32 25 6 34 -34 7 -34 6 -46 -8 -60 -20 -23 -22 -56 -2 -49 18 7
21 -34 25 -300 2 -178 -3 -217 -23 -184 -10 16 -85 51 -99 45 -19 -7 -19 -44
1 -50 9 -3 24 -9 33 -14 9 -5 33 -12 53 -15 20 -4 37 -12 37 -19 1 -6 3 -38 3
-71 1 -33 6 -202 10 -375 5 -173 9 -324 9 -335 2 -63 -3 -75 -27 -75 -35 0
-56 -10 -56 -27 0 -8 -10 -23 -23 -33 -27 -23 -18 -34 22 -25 21 4 32 15 40
36 5 16 16 29 24 29 20 0 27 -72 32 -345 3 -126 7 -293 10 -370 2 -77 7 -340
11 -585 3 -245 10 -472 14 -505 4 -33 9 -161 10 -285 0 -124 6 -342 11 -485 5
-143 12 -345 14 -450 3 -104 7 -243 9 -308 3 -74 1 -115 -5 -112 -11 8 -49 -3
-47 -13 4 -14 -23 -52 -33 -47 -5 4 -9 1 -9 -4 0 -6 4 -11 9 -11 5 0 12 -16
15 -35 l7 -35 33 25 c18 14 36 25 39 25 4 0 7 -15 7 -34 l0 -33 52 13 c29 8
98 14 153 15 55 0 138 4 185 9 47 4 153 11 235 14 83 3 161 7 175 9 54 10 179
20 275 22 55 2 134 6 175 9 75 5 332 14 684 22 103 2 191 6 195 9 5 2 181 7
392 10 251 4 386 10 390 17 4 7 58 9 155 7 82 -2 139 -3 127 -1 -13 2 -23 8
-23 13 0 8 87 12 300 14 30 0 77 4 103 9 56 10 74 1 26 -13 l-34 -9 40 0 c41
-1 99 16 63 17 -10 1 -18 5 -18 10 0 5 -8 12 -17 14 -10 3 7 5 37 6 59 1 95
-13 72 -27 -8 -6 -1 -9 20 -9 18 0 27 2 21 5 -18 5 -16 22 2 22 8 0 15 -6 15
-12 0 -10 2 -10 8 -2 4 7 43 15 87 19 44 5 72 11 63 14 -10 3 22 7 70 7 48 1
108 5 135 9 32 5 47 3 47 -4 0 -6 -19 -12 -42 -12 -40 -1 -39 -2 17 -10 33 -5
69 -8 80 -6 11 3 2 5 -19 6 -59 2 -35 14 34 17 38 2 59 0 55 -6 -4 -6 23 -10
72 -9 78 1 78 2 25 9 -66 10 -79 20 -25 20 23 0 43 4 45 9 2 5 44 11 94 12 75
2 97 -1 120 -15 26 -18 41 -18 278 -7 138 7 256 17 261 23 7 6 -7 8 -40 4 -35
-4 -44 -3 -30 3 11 5 43 10 70 10 33 0 43 -3 31 -8 -35 -13 -3 -17 104 -11 58
4 98 7 89 8 -9 1 -19 9 -23 17 -4 11 2 15 22 15 18 0 23 -3 14 -9 -9 -5 3 -10
34 -15 68 -9 127 -7 144 4 11 8 -7 9 -60 6 -65 -4 -68 -4 -25 4 29 5 113 4
199 -1 82 -5 151 -7 154 -4 3 3 -13 5 -36 5 -24 0 -42 5 -42 11 0 7 -15 9 -42
5 -24 -3 -34 -3 -23 0 11 3 26 13 32 22 9 11 27 15 63 13 48 -2 50 -1 50 24 0
23 4 25 40 25 l40 0 0 -40 0 -40 43 -2 42 -1 -45 -7 c-34 -5 -38 -7 -15 -8 16
-1 53 4 82 10 45 11 53 16 53 35 0 20 -5 23 -40 23 -29 0 -40 4 -40 15 0 9 -9
15 -25 15 -22 0 -25 4 -25 40 l0 40 50 0 50 0 0 -40 c0 -29 4 -40 15 -40 9 0
15 9 15 24 0 22 5 24 75 31 41 4 75 11 75 16 0 5 32 9 70 9 l70 0 0 40 0 40
-105 0 -105 0 0 25 c0 23 4 25 40 25 22 0 40 -4 40 -10 0 -5 18 -10 40 -10 29
0 40 4 40 15 0 12 16 15 80 15 62 0 80 -3 80 -14 0 -10 22 -16 80 -21 44 -4
80 -11 80 -16 0 -5 -36 -9 -80 -9 -79 0 -80 0 -80 -25 0 -22 -4 -25 -40 -25
-29 0 -40 -4 -40 -15 0 -12 16 -15 80 -15 l80 0 0 -40 0 -40 123 -2 c67 -2
157 -1 200 0 71 3 77 2 77 -17 0 -17 9 -20 83 -25 45 -3 135 -5 200 -4 116 1
117 1 117 25 0 20 5 23 40 23 33 0 40 -3 40 -20 0 -17 7 -20 40 -20 22 0 40
-4 40 -10 0 -5 18 -10 40 -10 22 0 40 5 40 11 0 7 39 10 123 8 67 -1 172 1
232 5 67 4 122 3 140 -3 24 -8 18 -9 -35 -6 -65 4 -65 4 14 -7 45 -6 81 -7 85
-2 7 10 161 13 161 3 0 -3 19 -5 43 -3 23 1 116 5 207 8 91 4 176 10 190 13
25 6 25 6 -5 13 -30 8 -29 8 8 9 24 1 37 -3 37 -12 0 -10 17 -11 76 -6 42 4
83 5 92 2 9 -4 13 -2 9 4 -4 5 -39 13 -79 17 -40 3 -75 12 -80 18 -11 18 -2
21 22 8 12 -6 24 -9 28 -6 9 9 -1 15 -59 36 -30 10 -79 29 -109 42 -51 21 -72
23 -264 25 -115 1 -211 5 -214 8 -3 3 -13 5 -23 5 -10 0 -24 6 -31 12 -18 17
-77 38 -91 32 -7 -2 -30 12 -51 32 -24 22 -53 38 -75 41 -20 4 -49 17 -65 30
-16 13 -35 22 -42 19 -8 -3 -11 0 -7 11 5 12 1 14 -15 8 -12 -3 -22 -2 -22 3
0 6 -8 8 -19 5 -12 -3 -24 3 -33 16 -18 25 -65 45 -70 29 -2 -6 -11 -4 -21 6
-9 10 -15 21 -13 25 2 3 -17 15 -42 25 -54 22 -74 35 -67 46 5 8 -26 24 -80
40 -55 17 -142 67 -149 87 -4 9 -2 21 3 26 6 6 91 11 193 12 101 2 190 4 198
6 8 1 -104 6 -250 9 -245 6 -268 8 -312 28 -51 25 -54 29 -63 120 -7 58 -16
75 -30 52 -3 -5 -24 -10 -46 -10 -32 0 -39 4 -39 19 0 17 10 20 73 25 137 11
532 24 764 25 141 1 234 5 238 11 4 6 -10 8 -37 4 -24 -3 -63 -1 -88 4 -33 7
-37 10 -17 11 33 1 36 21 3 21 -13 0 -26 5 -28 11 -2 6 -24 12 -48 14 -25 2
-47 4 -50 5 -3 1 -21 1 -41 0 -20 -1 -56 4 -80 10 -24 7 -81 13 -126 13 -46 1
-83 5 -83 9 0 4 -37 8 -82 9 -46 0 -77 3 -70 6 6 2 10 9 6 14 -7 12 -94 12
-94 -1 0 -5 -4 -10 -9 -10 -5 0 -7 9 -4 20 4 16 0 20 -21 20 -26 0 -35 13 -16
25 6 3 10 14 10 23 0 14 -2 14 -9 3 -7 -10 -11 -5 -16 18 -8 36 -39 43 -61 13
-18 -24 -18 -28 12 -55 29 -27 18 -46 -15 -25 -16 10 -30 10 -68 0 -26 -7 -75
-12 -108 -10 -64 2 -87 14 -148 75 -35 34 -95 48 -115 26 -15 -15 -15 -33 -2
-33 6 0 10 -4 10 -10 0 -5 -8 -10 -19 -10 -10 0 -23 -6 -30 -13 -15 -19 -100
-20 -135 -2 -15 8 -37 15 -47 15 -17 0 -19 8 -19 60 l0 60 48 2 c26 1 60 1 75
0 25 -2 28 0 22 20 -4 13 -23 38 -43 57 l-37 33 2 152 c0 83 1 163 2 179 1 26
3 27 53 27 49 0 51 1 34 19 -15 16 -15 24 -4 60 7 22 16 41 20 41 5 0 8 8 8
18 0 13 4 11 14 -8 10 -20 11 -31 0 -57 -7 -17 -10 -41 -7 -52 5 -19 14 -20
155 -23 108 -2 153 0 160 9 5 7 42 14 81 16 l72 3 -82 2 -83 2 5 73 c2 39 1
117 -3 172 -4 55 -6 126 -4 158 4 53 7 60 35 78 18 10 26 19 20 19 -7 0 -13 4
-13 10 0 5 13 7 30 4 23 -5 31 -2 37 12 8 23 24 35 36 27 4 -3 1 -14 -9 -24
-16 -18 -16 -19 14 -19 33 0 40 8 21 27 -8 8 0 10 31 6 41 -6 42 -5 40 23 -4
51 -1 61 11 41 6 -10 9 -27 6 -38 -5 -17 0 -19 44 -19 l49 0 0 35 c0 36 -7 41
-53 37 -9 -1 -31 13 -47 31 -23 24 -29 39 -26 59 4 20 2 26 -8 22 -9 -4 -15 8
-19 38 -3 23 -4 44 -2 47 9 8 35 -22 35 -40 0 -11 3 -18 8 -17 11 4 52 -35 52
-49 0 -16 10 -16 45 -3 l27 10 -31 29 c-17 16 -31 37 -31 46 0 9 -7 23 -15 32
-8 8 -12 20 -8 26 4 7 6 26 4 44 -3 42 10 42 49 1 l32 -33 -7 33 c-6 32 6 44
21 21 10 -17 33 44 27 74 -4 22 -1 27 21 33 21 5 33 1 52 -17 13 -12 24 -29
24 -37 0 -9 6 -12 16 -8 9 3 20 6 25 6 6 0 7 9 4 20 -4 11 -2 20 4 20 23 0 9
16 -31 35 -24 11 -50 27 -59 36 -9 9 -25 22 -35 28 -15 8 -16 12 -6 19 30 20
54 92 31 92 -8 0 -8 5 1 15 10 12 9 15 -7 15 -10 0 -26 -9 -36 -20 -12 -14
-29 -20 -59 -20 -74 0 -118 11 -118 29 0 9 -9 22 -20 29 -11 7 -20 22 -20 35
1 20 2 21 14 5 7 -10 20 -18 29 -18 9 0 19 -11 23 -25 6 -24 8 -25 23 -10 10
8 23 15 29 15 16 0 15 12 -3 46 -21 41 -2 54 29 21 14 -15 27 -27 29 -27 10 0
13 50 4 59 -6 6 -8 13 -4 17 3 3 18 -6 32 -20 31 -32 49 -34 40 -5 -6 17 -4
20 12 15 27 -8 38 5 38 46 0 49 -26 56 -93 23 -52 -25 -83 -34 -49 -14 13 7
16 17 11 32 -4 12 -9 24 -13 27 -3 3 -12 15 -19 28 -11 20 -10 22 8 22 17 0
19 3 8 19 -13 21 -81 43 -106 34 -11 -5 -13 -3 -7 6 6 10 0 12 -26 6 -19 -4
-36 -8 -39 -8 -3 -1 -16 3 -29 7 -32 11 -9 26 42 26 34 0 38 3 43 30 4 17 12
30 18 30 6 0 16 11 23 25 9 20 8 25 -3 25 -8 0 -14 5 -14 10 0 6 -7 10 -16 10
-8 0 -12 5 -9 10 3 6 2 10 -4 10 -5 0 -17 7 -26 17 -13 13 -19 13 -25 4 -6
-11 -9 -11 -16 0 -4 7 -3 14 4 17 21 7 13 20 -9 15 -15 -4 -19 -11 -15 -25 6
-26 -3 -48 -20 -48 -8 0 -14 -9 -14 -20 0 -20 -1 -20 -31 -5 -25 14 -33 14
-46 3 -14 -11 -15 -11 -11 2 2 8 14 16 25 18 26 4 36 27 23 52 -8 15 -6 21 11
30 16 9 18 14 8 26 -6 8 -20 14 -30 14 -11 0 -19 7 -19 15 0 18 -1 18 -36 5
-45 -17 -59 -5 -35 29 26 36 26 44 2 36 -11 -3 -22 -1 -25 4 -10 15 -36 1 -36
-18 0 -9 5 -22 12 -29 8 -8 9 -12 1 -12 -6 0 -13 6 -16 13 -10 29 -17 -4 -8
-42 8 -38 7 -42 -19 -61 -15 -11 -33 -20 -39 -20 -6 0 -11 -4 -11 -9 0 -4 -11
-20 -25 -35 -21 -23 -23 -30 -13 -45 7 -10 17 -19 23 -19 12 -1 20 -22 8 -22
-4 0 -26 9 -47 21 -27 14 -42 17 -49 10 -8 -8 -8 -11 1 -11 7 0 12 -8 12 -17
-1 -16 -3 -15 -19 4 -21 25 -17 73 6 73 13 0 13 2 2 17 -13 15 -11 16 13 10
29 -8 58 0 58 14 0 5 -8 9 -17 9 -20 0 -85 49 -66 50 14 0 46 60 32 60 -6 0
-9 8 -8 18 4 42 -2 44 -31 13 -17 -17 -28 -36 -24 -42 3 -6 -3 -13 -15 -16
-12 -3 -21 -13 -21 -25 0 -11 -5 -18 -12 -15 -7 2 -12 16 -11 31 2 23 0 26
-13 15 -8 -7 -13 -18 -10 -26 6 -15 -36 -63 -54 -63 -7 0 -9 8 -5 19 3 11 2
22 -4 25 -14 9 -2 42 25 67 30 28 31 43 3 34 -18 -6 -20 -4 -14 14 4 12 2 21
-4 21 -6 0 -11 -6 -11 -14 0 -8 -7 -17 -15 -20 -9 -3 -15 -11 -14 -18 1 -7 1
-21 0 -30 -1 -25 -46 -23 -63 1 -15 22 -74 33 -100 19 -11 -5 -18 -20 -18 -35
0 -21 3 -24 12 -15 19 19 49 14 74 -13 13 -14 31 -25 41 -25 15 0 16 -2 3 -10
-8 -5 -10 -10 -5 -11 6 0 -13 -8 -41 -17 -29 -9 -52 -21 -52 -27 -1 -17 -22
-17 -28 -1 -3 9 -12 16 -20 16 -8 0 -14 7 -14 15 0 17 -25 20 -35 5 -3 -6 1
-17 9 -26 9 -8 16 -22 16 -30 0 -8 10 -14 25 -14 31 0 31 -16 2 -52 -27 -33
-72 -46 -80 -24 -9 22 -24 20 -32 -3 -5 -16 -15 -19 -59 -18 l-53 2 26 35 c14
19 34 41 43 48 24 18 18 52 -14 83 -15 14 -25 29 -21 32 3 4 -3 7 -14 7 -13 0
-20 6 -19 16 2 25 -24 29 -31 6 -5 -22 -29 -36 -44 -26 -6 3 -7 14 -4 25 7 23
-3 24 -31 5 -13 -9 -25 -11 -34 -6 -11 7 -7 12 15 20 16 6 33 17 37 23 6 9 12
7 21 -5 25 -32 78 0 63 38 -6 15 -41 20 -50 6 -2 -4 -18 -9 -35 -10 -24 -2
-31 2 -31 15 0 15 2 16 10 3 7 -12 12 -12 34 0 14 7 26 21 26 31 0 10 5 21 10
24 6 3 10 -1 10 -9 0 -9 4 -16 9 -16 5 0 16 -3 25 -6 12 -5 15 2 13 38 -2 32
2 43 13 43 9 0 14 -7 12 -17 -2 -11 3 -18 13 -18 8 0 15 7 15 16 0 9 7 14 18
12 22 -4 23 -1 16 29 -6 22 -7 22 -37 7 -27 -15 -29 -15 -24 0 4 9 3 16 -2 16
-14 0 -56 -42 -53 -53 2 -6 -6 -3 -17 7 -12 11 -21 26 -21 35 0 11 3 12 11 4
14 -14 49 -5 49 13 0 40 -87 74 -107 41 -23 -39 -90 -21 -85 23 l3 25 -16 -23
c-13 -18 -14 -27 -6 -35 14 -14 14 -30 0 -22 -5 4 -18 -3 -29 -15 -15 -17 -25
-20 -54 -14 -30 5 -36 10 -31 25 4 11 2 19 -5 19 -7 0 -9 7 -6 16 4 11 0 15
-17 14 -39 -4 -47 0 -47 18 -1 9 -12 31 -26 47 -23 26 -25 27 -21 8 5 -23 -14
-48 -28 -35 -4 4 -5 -6 -1 -22 6 -24 4 -27 -9 -22 -40 15 -65 18 -65 7 0 -6 5
-11 10 -11 6 0 10 -4 10 -10 0 -16 -40 -12 -57 6 -12 12 -13 18 -4 23 17 11
-3 61 -24 61 -16 0 -15 -10 2 -57 9 -22 -14 -14 -47 17 -18 17 -36 30 -41 30
-14 0 -11 -16 6 -30 8 -7 12 -16 9 -21 -3 -5 6 -14 20 -21 14 -6 26 -16 26
-22 0 -6 13 -17 30 -24 44 -20 38 -40 -12 -44 -39 -3 -69 -28 -33 -28 9 0 13
-5 9 -11 -4 -7 -1 -10 7 -7 8 3 13 10 12 15 -1 5 5 10 13 10 17 0 19 -23 2
-30 -8 -3 -6 -6 5 -6 9 -1 17 -8 17 -17 0 -8 -5 -12 -11 -9 -6 4 -5 -2 3 -14
7 -12 20 -21 29 -21 12 0 15 -7 11 -27 -3 -18 -7 -22 -10 -13 -6 19 -50 60
-64 60 -7 0 -7 -4 1 -13 6 -8 8 -17 4 -20 -10 -11 -43 -8 -44 3 -1 6 -3 15 -4
20 -1 6 -4 22 -5 38 -1 18 -4 21 -7 10 -5 -19 -38 -23 -81 -12 -21 6 -23 11
-19 61 l4 55 -29 -4 c-37 -6 -51 12 -45 56 4 33 3 35 -15 25 -25 -14 -43 1
-59 49 -21 66 -46 78 -90 44 l-22 -19 32 -14 c17 -8 40 -28 50 -45 l18 -31
-48 5 c-33 3 -49 1 -49 -7 0 -6 7 -11 15 -11 9 0 15 -9 15 -21 0 -21 0 -21 18
1 16 20 19 21 31 6 10 -12 11 -19 2 -30 -8 -9 -10 -30 -6 -55 6 -44 -1 -51
-27 -23 -9 9 -24 23 -32 30 -13 10 -14 16 -4 32 9 15 10 22 1 31 -8 8 -14 6
-23 -10 -12 -23 -5 -61 11 -61 5 0 9 -5 9 -12 0 -6 16 -27 36 -45 24 -21 31
-33 21 -33 -9 0 -19 5 -22 10 -11 17 -43 11 -50 -9 -3 -11 0 -29 7 -40 14 -23
4 -41 -14 -23 -21 21 -25 13 -15 -27 6 -22 14 -38 19 -35 4 3 8 0 8 -6 0 -7 7
-10 15 -6 11 4 15 -2 15 -25 0 -20 4 -29 13 -26 6 2 11 14 10 26 -2 11 1 21 6
21 16 0 23 -40 10 -56 -10 -12 -9 -18 4 -32 15 -15 17 -15 17 0 0 27 28 29 34
2 4 -13 11 -24 17 -24 6 0 8 7 5 16 -4 10 -1 14 6 11 7 -2 12 -15 10 -27 -3
-32 -8 -35 -27 -16 -18 17 -90 23 -80 6 3 -5 -1 -10 -9 -10 -9 0 -16 5 -16 10
0 6 -7 10 -15 10 -19 0 -19 19 0 26 8 4 15 10 15 15 0 5 -7 9 -15 9 -8 0 -15
-4 -15 -9 0 -5 -13 -14 -29 -20 -23 -10 -27 -17 -23 -37 3 -18 8 -22 15 -15
19 19 27 12 27 -24 0 -21 -5 -35 -12 -35 -9 0 -10 -3 -2 -8 6 -4 13 -14 16
-22 3 -10 11 -2 22 23 21 42 20 42 39 22 20 -19 10 -55 -15 -55 -12 0 -19 -6
-17 -17 1 -10 1 -29 0 -43 -1 -22 -3 -23 -12 -7 -5 9 -8 21 -5 25 2 4 0 14 -5
22 -8 13 -10 13 -18 1 -5 -8 -14 -10 -22 -5 -8 5 -23 10 -34 11 -11 2 -21 8
-23 13 -2 6 -8 10 -13 10 -4 0 -5 -7 -2 -17 4 -11 3 -14 -5 -9 -7 4 -12 1 -12
-8 0 -9 -7 -16 -15 -16 -8 0 -15 -4 -15 -10 0 -13 37 -13 45 1 9 13 45 -18 45
-39 0 -10 3 -12 13 -4 9 8 12 3 12 -19 0 -18 -5 -29 -14 -29 -7 0 -11 -6 -8
-14 8 -20 -4 -28 -20 -15 -15 13 -17 1 -4 -20 10 -16 51 -6 51 14 0 7 5 15 11
17 9 3 9 9 1 25 -16 28 13 41 30 13 11 -17 13 -17 26 -2 7 9 11 11 7 5 -3 -7
-1 -13 5 -13 6 0 8 -5 4 -11 -3 -6 0 -15 7 -20 19 -12 52 -11 44 1 -3 5 -2 17
3 26 8 14 10 12 16 -10 3 -14 11 -26 17 -26 8 0 8 5 -1 15 -15 18 -5 36 16 28
13 -5 15 -1 9 15 -3 12 -2 22 3 22 14 0 33 -26 25 -33 -3 -4 -1 -7 5 -7 7 0
12 -4 12 -10 0 -5 -9 -10 -19 -10 -22 0 -36 -16 -22 -24 5 -3 21 -7 35 -8 23
-2 26 -7 26 -41 0 -30 -3 -38 -14 -34 -8 3 -17 0 -19 -7 -4 -10 10 -14 55 -15
l61 -1 -5 44 -5 45 25 -17 c21 -14 23 -18 9 -20 -10 -2 -17 -13 -17 -28 0 -30
20 -32 21 -1 1 16 2 18 6 5 4 -16 18 -18 114 -18 l109 0 0 49 c0 41 -4 51 -25
65 -39 26 -31 86 11 86 23 0 23 2 26 113 3 108 4 112 26 115 12 2 22 -1 22 -7
0 -6 -7 -11 -15 -11 -8 0 -15 -8 -15 -17 0 -16 2 -16 11 -3 9 12 9 11 4 -5
-17 -48 -17 -55 -1 -55 13 0 16 -13 17 -72 0 -40 1 -111 2 -158 l2 -85 40 1
c22 1 51 3 65 4 81 7 435 -2 447 -12 7 -6 13 -30 13 -53 0 -26 5 -45 13 -48 9
-3 9 -9 0 -28 -16 -29 -18 -128 -14 -597 l2 -362 22 5 c37 9 51 -8 41 -51 -4
-22 -7 -49 -6 -61 2 -17 -2 -23 -18 -23 -16 0 -20 4 -15 19 3 12 0 21 -10 25
-13 4 -15 -7 -15 -79 0 -50 4 -85 10 -85 5 0 9 -6 7 -12 -1 -9 9 -12 32 -10
l34 2 -5 -293 c-2 -161 -8 -298 -12 -305 -3 -6 -13 -9 -21 -6 -8 4 -12 10 -9
15 8 14 -6 11 -21 -5 -10 -9 -15 -61 -19 -186 -4 -96 -8 -175 -10 -177 -3 -3
-158 59 -166 67 -3 3 -23 14 -45 25 -22 11 -61 32 -87 47 -29 17 -50 23 -54
17 -7 -13 -11 -10 54 -49 61 -37 69 -49 12 -20 -47 24 -51 24 -44 6 3 -8 15
-16 27 -18 19 -3 19 -4 -5 -9 -15 -4 -25 -2 -22 2 3 5 1 9 -5 9 -5 0 -13 -36
-17 -80 -4 -54 -12 -84 -23 -94 -23 -20 -94 -38 -181 -45 -71 -6 -75 -7 -78
-31 l-3 -25 -297 2 c-163 2 -433 3 -599 3 l-303 0 0 49 0 49 58 4 c31 2 287 3
567 2 281 0 525 1 543 4 38 5 42 24 8 40 -29 13 -125 15 -713 16 l-451 1 -4
45 c-3 25 -3 47 0 50 2 3 267 7 589 8 l585 4 -24 25 -23 25 -355 -2 c-195 -2
-359 -1 -365 0 -19 6 -60 7 -217 10 l-157 2 -3 26 c-2 22 -8 27 -33 28 -16 0
-61 4 -100 9 -63 8 -67 9 -35 16 23 4 27 7 13 8 -28 1 -30 21 -3 28 11 3 20
14 20 24 0 17 7 19 58 18 31 -1 49 -3 39 -6 -9 -2 -17 -11 -17 -19 0 -16 26
-19 35 -4 7 12 165 12 244 1 30 -4 97 -4 150 0 53 4 183 10 290 13 106 4 197
9 202 12 10 6 12 62 3 117 l-7 37 -95 0 c-52 0 -92 3 -89 7 4 3 2 12 -4 20 -8
9 -41 13 -115 13 -96 0 -104 1 -104 19 0 27 -12 32 -59 25 -30 -5 -41 -11 -41
-25 0 -15 -11 -18 -91 -21 -84 -3 -117 3 -87 15 7 3 3 6 -10 6 -13 1 -20 -3
-17 -9 3 -6 -4 -14 -17 -19 -17 -7 -19 -10 -5 -10 31 -2 18 -21 -15 -22 -18
-1 -40 -2 -48 -3 -8 0 -21 4 -27 11 -12 10 -36 9 -73 -4 -31 -11 -67 -16 -122
-17 -36 -1 -58 -5 -58 -12 0 -15 -54 -26 -86 -18 -14 4 -29 0 -38 -8 -10 -10
-43 -15 -110 -17 -83 -2 -96 0 -96 14 0 9 -4 13 -10 10 -5 -3 -10 3 -10 14 0
12 5 21 11 21 7 0 9 9 6 22 -4 12 -1 28 5 35 8 10 5 18 -11 32 -19 16 -21 29
-21 115 l0 96 -30 0 c-20 0 -30 5 -30 15 0 12 -13 15 -60 15 -57 0 -60 -1 -60
-24 0 -26 -16 -36 -60 -36 -17 0 -33 -8 -43 -23 -13 -18 -16 -19 -16 -4 -1 9
-5 17 -9 17 -4 0 -8 -70 -7 -156 0 -112 -4 -162 -13 -173 -10 -14 -12 -12 -7
14 3 17 2 24 -1 18 -8 -17 -38 -17 -31 0 4 10 -1 13 -17 10 -16 -3 -22 -12
-24 -36 -4 -50 -11 -65 -35 -73 -12 -4 -27 -14 -34 -23 -10 -14 -12 -12 -11
14 0 17 -5 162 -11 324 -7 196 -8 297 -1 301 5 3 92 7 192 9 100 1 186 5 190
7 19 12 5 24 -29 24 -46 1 -78 21 -61 38 7 7 28 12 48 12 79 0 80 2 80 101 0
55 -4 89 -10 89 -7 0 -10 29 -8 78 3 76 3 77 31 80 15 2 27 -1 27 -7 0 -6 5
-11 11 -11 12 0 10 233 -2 244 -11 11 -61 -14 -66 -32 -2 -10 -16 -26 -31 -35
-24 -14 -24 -17 -7 -17 16 0 17 -2 5 -9 -8 -5 -26 -12 -39 -16 -22 -7 -23 -5
-17 21 6 26 6 27 -6 11 -10 -13 -23 -16 -56 -14 -23 3 -45 7 -49 11 -3 3 -11
6 -16 6 -6 0 0 -9 12 -19 19 -17 21 -22 9 -40 -15 -25 -33 -28 -24 -5 3 9 1
14 -5 12 -6 -2 -10 -7 -10 -11 1 -4 1 -17 1 -29 0 -18 2 -20 10 -8 12 20 21 9
13 -18 -4 -18 -8 -20 -19 -11 -8 6 -14 17 -14 24 0 7 -6 18 -13 24 -22 17 -44
-16 -49 -71 -2 -34 1 -48 9 -48 7 0 22 -8 32 -17 31 -29 45 -39 55 -41 5 -1
10 -12 11 -24 1 -13 6 -32 10 -42 8 -17 5 -19 -23 -13 -18 4 -32 3 -33 -1 -5
-43 -3 -62 6 -62 7 0 10 -12 7 -30 -4 -29 -3 -31 22 -24 14 3 26 2 26 -3 0
-18 -25 -33 -55 -33 -16 0 -43 -7 -59 -15 -15 -8 -32 -12 -37 -9 -5 3 -9 -2
-9 -10 0 -26 -27 -18 -32 8 -5 23 -2 24 26 20 28 -5 29 -4 11 7 -11 7 -32 12
-46 10 l-27 -2 -6 153 c-3 84 -8 313 -11 509 -2 196 -7 363 -10 370 -3 8 -31
28 -61 46 l-55 32 2 -47 c2 -36 -1 -46 -12 -44 -7 2 -61 32 -119 66 -180 108
-393 225 -582 320 -64 32 -119 65 -122 72 -3 8 -8 122 -12 254 -4 144 -11 240
-17 240 -6 0 -7 -87 -2 -240 4 -142 3 -240 -2 -240 -5 0 -14 5 -21 12 -7 7
-12 8 -12 3 0 -6 -4 -5 -8 1 -4 6 -43 30 -87 52 -44 22 -142 74 -219 116 -76
42 -141 76 -145 76 -4 0 -29 14 -57 32 -27 17 -79 46 -115 64 -36 17 -118 62
-183 98 -65 36 -120 66 -122 66 -3 0 -39 20 -82 43 -42 24 -122 68 -177 97
-55 29 -107 58 -115 65 -8 7 -51 30 -95 52 -44 22 -104 54 -133 72 -29 17 -55
31 -58 31 -23 0 -32 37 -39 146 -6 110 -18 164 -36 164 -4 0 -43 24 -86 53
-43 28 -134 88 -203 131 -169 107 -255 163 -316 208 -48 36 -55 38 -120 37
-38 -1 -82 -5 -99 -9z m25 -50 c-7 -13 -20 -20 -38 -19 -21 1 -22 2 -7 6 11 3
24 11 28 19 13 23 29 17 17 -6z m5844 -926 c9 -3 16 -12 16 -20 0 -12 -4 -12
-20 -2 -30 19 -27 34 4 22z m364 -26 c-6 -18 -28 -21 -28 -4 0 9 7 16 16 16 9
0 14 -5 12 -12z m-103 -30 c5 -4 0 -6 -13 -5 -22 1 -27 8 -15 20 3 4 9 4 12 0
3 -4 10 -11 16 -15z m-295 -8 c0 -5 -7 -7 -15 -4 -8 4 -15 8 -15 10 0 2 7 4
15 4 8 0 15 -4 15 -10z m-405 -20 c3 -5 -1 -10 -9 -10 -9 0 -16 5 -16 10 0 6
4 10 9 10 6 0 13 -4 16 -10z m445 2 c0 -13 -12 -22 -22 -16 -10 6 -1 24 13 24
5 0 9 -4 9 -8z m230 -2 c0 -5 -8 -10 -17 -10 -15 0 -16 2 -3 10 19 12 20 12
20 0z m-350 -10 c0 -5 -4 -10 -10 -10 -5 0 -10 5 -10 10 0 6 5 10 10 10 6 0
10 -4 10 -10z m460 -15 c0 -8 -4 -15 -10 -15 -5 0 -10 7 -10 15 0 8 5 15 10
15 6 0 10 -7 10 -15z m-766 -13 c2 -4 -5 -9 -17 -9 -17 -2 -19 0 -7 7 18 12
18 12 24 2z m404 -34 c14 -23 14 -30 3 -40 -10 -11 -16 -9 -28 10 -9 12 -22
22 -29 22 -8 0 -14 6 -14 13 0 37 44 34 68 -5z m-478 10 c0 -7 -4 -19 -9 -27
-11 -17 -25 3 -17 24 7 18 26 20 26 3z m802 -10 c-7 -7 -12 -8 -12 -2 0 14 12
26 19 19 2 -3 -1 -11 -7 -17z m-760 -47 c-2 -9 4 -12 19 -8 16 4 19 3 11 -5
-9 -9 -18 -8 -37 0 -28 13 -34 35 -7 30 9 -2 16 -10 14 -17z m-109 -51 c-7 -8
-42 44 -36 53 3 5 13 -4 23 -20 9 -15 15 -30 13 -33z m55 13 c9 -7 12 -16 8
-20 -11 -11 -49 33 -40 48 6 10 9 10 12 -1 2 -8 11 -21 20 -27z m738 -29 c-4
-46 -11 -51 -14 -11 -1 18 -5 41 -9 52 -5 17 -4 18 10 7 10 -9 15 -26 13 -48z
m41 24 c-3 -8 -6 -5 -6 6 -1 11 2 17 5 13 3 -3 4 -12 1 -19z m-617 -20 c0 -5
-4 -8 -10 -8 -5 0 -10 10 -10 23 0 18 2 19 10 7 5 -8 10 -18 10 -22z m224 -12
c-3 -14 -10 -26 -15 -26 -4 0 -3 14 3 31 12 36 22 33 12 -5z m1139 -7 c-6 -6
-9 -18 -6 -25 3 -8 -1 -14 -11 -14 -9 0 -16 5 -16 12 0 13 33 48 39 42 3 -3 0
-9 -6 -15z m-1565 -24 c-3 -3 -9 2 -12 12 -6 14 -5 15 5 6 7 -7 10 -15 7 -18z
m1884 5 c-2 -7 -4 -26 -5 -41 -2 -25 -37 -63 -37 -39 0 5 5 10 10 10 6 0 10
21 10 46 0 32 4 44 13 41 6 -2 11 -10 9 -17z m-1713 -6 c1 -1 0 -7 -3 -12 -9
-15 -46 -2 -46 15 0 10 6 12 23 7 12 -3 24 -8 26 -10z m48 1 c8 -9 13 -19 9
-22 -3 -4 -15 3 -26 15 -23 25 -7 31 17 7z m381 -24 c-7 -12 -16 -21 -21 -21
-4 0 0 11 9 25 20 30 31 26 12 -4z m252 19 c0 -5 -4 -10 -10 -10 -5 0 -10 5
-10 10 0 6 5 10 10 10 6 0 10 -4 10 -10z m-30 -20 c0 -11 -4 -20 -9 -20 -5 0
-7 9 -4 20 3 11 7 20 9 20 2 0 4 -9 4 -20z m-90 -30 c-8 -5 -16 -8 -17 -6 -2
2 -1 11 3 20 5 13 10 14 18 6 8 -8 7 -13 -4 -20z m1055 -1 c-4 -5 5 -13 20
-19 22 -8 24 -13 15 -30 -6 -11 -15 -18 -20 -15 -4 3 -6 -4 -3 -15 3 -11 1
-20 -3 -20 -15 0 -32 34 -29 60 1 14 3 33 4 43 0 10 6 15 11 12 6 -4 8 -11 5
-16z m-1711 -4 c16 -12 17 -15 4 -15 -8 0 -21 7 -28 15 -16 19 -1 19 24 0z
m852 3 c-10 17 9 15 24 -3 10 -12 10 -15 -1 -16 -8 0 -22 -2 -31 -4 -20 -4
-32 10 -23 25 5 8 12 7 23 -2 12 -10 14 -10 8 0z m824 2 c0 -5 -4 -10 -9 -10
-5 0 -11 -7 -13 -15 -2 -10 -8 -12 -17 -6 -12 8 -12 11 0 25 16 17 39 21 39 6z
m-441 -31 c-5 -10 -14 -19 -19 -19 -6 0 -9 -5 -7 -11 1 -6 -4 -14 -12 -17 -9
-3 -11 0 -6 7 4 7 -1 18 -11 26 -18 13 -17 14 9 20 15 4 27 11 27 16 0 5 7 6
15 3 11 -5 12 -11 4 -25z m187 13 c6 -4 15 -18 19 -32 4 -14 13 -28 19 -32 10
-7 -40 -13 -71 -9 -7 1 -13 -5 -13 -14 0 -8 -4 -15 -10 -15 -5 0 -10 5 -10 10
0 6 -7 10 -15 10 -20 0 -30 27 -16 44 6 7 8 16 4 19 -3 4 5 7 20 7 14 0 29 5
32 10 7 12 25 13 41 2z m549 -54 c-10 -12 -15 -16 -12 -7 3 9 1 21 -5 27 -7 7
-6 15 3 25 12 14 15 13 23 -3 6 -13 3 -26 -9 -42z m-1050 23 c-8 -13 -35 -15
-35 -2 0 5 8 11 18 13 21 5 26 2 17 -11z m555 4 c0 -8 -4 -15 -10 -15 -5 0
-10 7 -10 15 0 8 5 15 10 15 6 0 10 -7 10 -15z m-765 -17 c6 -6 -3 -7 -27 -3
-40 8 -49 -3 -23 -25 16 -14 20 -40 6 -40 -5 0 -11 10 -14 21 -4 14 -11 20
-20 16 -17 -6 -18 21 -2 40 11 14 63 8 80 -9z m183 -21 c18 7 15 -2 -10 -23
-18 -16 -20 -16 -15 -2 3 9 0 19 -9 22 -8 3 -14 11 -14 17 0 8 6 7 18 -3 9 -9
23 -13 30 -11z m712 13 c0 -5 -4 -10 -10 -10 -5 0 -10 5 -10 10 0 6 5 10 10
10 6 0 10 -4 10 -10z m-1361 -34 c0 -14 -2 -16 -6 -6 -3 8 -10 21 -16 28 -7 9
-6 11 7 6 9 -3 16 -16 15 -28z m1011 19 c0 -8 -4 -15 -9 -15 -4 0 -7 -12 -5
-27 l4 -28 -11 28 c-12 29 -6 57 11 57 5 0 10 -7 10 -15z m387 -22 c1 -22 -1
-24 -8 -10 -6 9 -7 22 -4 27 9 14 10 13 12 -17z m183 12 c0 -9 -7 -18 -15 -21
-8 -4 -15 -12 -15 -20 0 -8 -4 -14 -10 -14 -5 0 -10 -9 -10 -19 0 -11 -4 -23
-10 -26 -6 -3 -10 5 -10 19 0 13 -5 26 -12 28 -8 3 -8 9 0 24 6 10 12 13 12 7
0 -18 20 -16 20 2 0 13 25 34 43 35 4 0 7 -7 7 -15z m55 -15 c-10 -11 -20 -18
-23 -15 -7 6 18 35 31 35 5 0 2 -9 -8 -20z m-1940 0 c-3 -5 -10 -10 -16 -10
-5 0 -9 5 -9 10 0 6 7 10 16 10 8 0 12 -4 9 -10z m1242 -20 c-4 -17 -2 -20 13
-15 15 5 30 -9 26 -25 0 -3 9 -16 21 -29 16 -17 20 -31 17 -51 -4 -19 -1 -29
10 -33 9 -4 16 -14 16 -23 0 -15 -2 -15 -24 -1 -23 15 -26 15 -58 -13 -32 -29
-78 -40 -78 -20 0 6 6 10 13 10 14 0 51 39 44 47 -3 2 -16 -1 -29 -8 -12 -7
-30 -15 -38 -20 -8 -4 -14 -12 -13 -17 1 -6 -4 -16 -13 -22 -12 -11 -13 -10
-8 4 9 22 -2 20 -40 -9 -38 -29 -49 -31 -66 -10 -10 12 -10 19 -2 27 6 6 8 24
5 39 -7 34 9 38 25 7 10 -21 11 -22 11 -3 0 11 -3 26 -8 34 -5 7 -6 22 -3 33
6 26 22 3 22 -33 0 -15 7 -29 15 -33 11 -4 15 1 15 19 0 13 -5 27 -10 30 -17
10 0 26 20 20 13 -4 22 1 30 15 6 11 21 20 33 20 19 1 18 3 -8 16 l-30 14 33
-5 c21 -3 32 0 33 8 1 6 2 17 4 22 1 6 3 13 3 18 1 4 7 7 13 7 6 0 9 -9 6 -20z
m153 6 c0 -16 -18 -31 -27 -22 -8 8 5 36 17 36 5 0 10 -6 10 -14z m-1113 -28
c-3 -7 -5 -2 -5 12 0 14 2 19 5 13 2 -7 2 -19 0 -25z m1486 7 c4 -8 2 -17 -3
-20 -6 -4 -10 -1 -10 4 0 6 -7 11 -16 11 -8 0 -12 5 -9 10 9 15 32 12 38 -5z
m-240 -14 c3 -14 0 -19 -13 -18 -15 1 -16 5 -9 19 12 23 15 23 22 -1z m352
-27 c-10 -19 -15 -23 -15 -11 0 20 23 62 28 49 1 -5 -4 -22 -13 -38z m-259 20
c-3 -9 -6 -18 -6 -20 0 -2 -5 -4 -11 -4 -8 0 -9 4 0 13 6 8 8 17 4 20 -3 4 -1
7 6 7 8 0 11 -6 7 -16z m-149 -1 c-9 -2 -15 -9 -12 -14 4 -5 1 -9 -4 -9 -6 0
-11 7 -11 15 0 9 9 15 23 14 17 -1 18 -2 4 -6z m113 -23 c0 -5 -4 -10 -10 -10
-5 0 -10 5 -10 10 0 6 5 10 10 10 6 0 10 -4 10 -10z m124 1 c3 -5 -1 -12 -10
-15 -20 -8 -29 -1 -19 13 8 13 22 14 29 2z m-1644 -48 c0 -17 -20 -17 -20 0
-1 7 -5 6 -13 -5 -15 -19 -44 -8 -32 12 6 9 9 9 16 -1 5 -9 10 -4 15 16 7 26
8 27 20 10 8 -11 14 -25 14 -32z m608 -9 c-2 -24 -6 -44 -9 -44 -11 0 -18 40
-8 46 5 3 6 17 3 31 -5 19 -4 24 5 19 7 -5 11 -26 9 -52z m296 48 c2 -4 0 -14
-5 -22 -8 -13 -10 -13 -18 -1 -5 8 -18 12 -31 8 -13 -3 -19 -2 -14 3 8 7 30
14 56 19 4 0 9 -3 12 -7z m786 -2 c0 -5 -7 -10 -16 -10 -8 0 -12 5 -9 10 3 6
10 10 16 10 5 0 9 -4 9 -10z m-304 -38 c-10 -10 -29 15 -21 28 6 9 10 8 17 -4
6 -10 7 -20 4 -24z m-416 12 c0 -2 -9 -4 -21 -4 -11 0 -18 4 -14 10 5 8 35 3
35 -6z m607 -33 c-1 -20 -11 -45 -21 -55 -17 -17 -19 -17 -13 -2 17 44 18 63
3 75 -23 19 -19 29 9 23 22 -4 24 -9 22 -41z m-1257 24 c0 -8 -4 -15 -10 -15
-5 0 -7 7 -4 15 4 8 8 15 10 15 2 0 4 -7 4 -15z m1418 -2 c-14 -4 -34 -46 -30
-65 1 -5 -2 -8 -8 -8 -5 0 -10 6 -10 14 0 8 -2 20 -3 28 -2 7 -2 10 0 6 8 -14
25 -8 20 6 -7 18 1 26 27 25 16 -1 17 -2 4 -6z m-1823 -21 c-3 -3 -11 0 -18 7
-9 10 -8 11 6 5 10 -3 15 -9 12 -12z m363 -8 c1 -14 -2 -23 -8 -19 -12 7 -14
45 -2 45 4 0 9 -11 10 -26z m262 12 c0 -8 -4 -18 -10 -21 -5 -3 -10 -4 -10 -1
0 2 -3 11 -6 20 -4 11 -1 16 10 16 9 0 16 -6 16 -14z m230 4 c0 -5 -2 -10 -4
-10 -3 0 -8 5 -11 10 -3 6 -1 10 4 10 6 0 11 -4 11 -10z m758 -18 c2 -12 -2
-22 -8 -22 -6 0 -9 4 -5 9 3 5 1 12 -5 16 -14 9 -12 27 3 23 6 -3 13 -14 15
-26z m97 18 c3 -5 1 -10 -4 -10 -6 0 -11 5 -11 10 0 6 2 10 4 10 3 0 8 -4 11
-10z m-1277 -17 c-2 -9 -10 -19 -18 -21 -12 -4 -13 -3 -3 10 7 8 10 18 6 21
-3 4 -1 7 6 7 7 0 11 -8 9 -17z m602 -8 c0 -28 -15 -33 -24 -8 -4 9 -1 20 6
25 18 11 18 11 18 -17z m87 3 c-3 -8 -6 -5 -6 6 -1 11 2 17 5 13 3 -3 4 -12 1
-19z m-387 -24 c-10 -44 -17 -51 -33 -34 -7 8 -8 11 -1 7 13 -7 24 13 24 44 0
10 4 19 9 19 5 0 5 -15 1 -36z m-753 4 c-3 -8 -6 -5 -6 6 -1 11 2 17 5 13 3
-3 4 -12 1 -19z m1010 -31 c-20 -30 -32 -31 -35 -2 -1 18 2 23 13 19 8 -4 15
-1 15 6 0 6 5 8 11 5 7 -5 6 -14 -4 -28z m1192 2 c-11 -6 -10 -9 4 -15 17 -6
17 -7 0 -20 -15 -11 -20 -11 -30 3 -11 14 -9 21 9 40 14 15 24 20 27 12 2 -6
-3 -15 -10 -20z m-1931 -14 c-3 -3 -9 2 -12 12 -6 14 -5 15 5 6 7 -7 10 -15 7
-18z m389 -2 c-3 -3 -11 -2 -17 2 -9 6 -9 10 1 16 14 8 27 -7 16 -18z m43 17
c0 -5 -2 -10 -4 -10 -3 0 -8 5 -11 10 -3 6 -1 10 4 10 6 0 11 -4 11 -10z
m-403 -32 c-3 -7 -5 -2 -5 12 0 14 2 19 5 13 2 -7 2 -19 0 -25z m-97 7 c0 -8
-2 -15 -4 -15 -2 0 -6 7 -10 15 -3 8 -1 15 4 15 6 0 10 -7 10 -15z m37 -7 c-3
-8 -6 -5 -6 6 -1 11 2 17 5 13 3 -3 4 -12 1 -19z m1133 6 c0 -17 -22 -14 -28
4 -2 7 3 12 12 12 9 0 16 -7 16 -16z m80 12 c0 -3 -4 -8 -10 -11 -5 -3 -10 -1
-10 4 0 6 5 11 10 11 6 0 10 -2 10 -4z m347 -18 c-3 -8 -6 -5 -6 6 -1 11 2 17
5 13 3 -3 4 -12 1 -19z m166 8 c7 -18 -34 -29 -65 -17 l-23 9 25 10 c35 15 57
14 63 -2z m-1003 -6 c0 -5 -4 -10 -10 -10 -5 0 -10 5 -10 10 0 6 5 10 10 10 6
0 10 -4 10 -10z m725 0 c3 -5 1 -10 -4 -10 -6 0 -11 5 -11 10 0 6 2 10 4 10 3
0 8 -4 11 -10z m-983 -25 c3 -14 1 -25 -3 -25 -5 0 -9 4 -9 9 0 5 -3 16 -6 25
-3 9 -2 16 4 16 5 0 12 -11 14 -25z m1468 -9 c0 -10 -28 -7 -35 4 -11 18 5 31
21 16 8 -8 14 -17 14 -20z m-949 1 c-1 -12 -15 -9 -19 4 -3 6 1 10 8 8 6 -3
11 -8 11 -12z m79 9 c0 -3 -4 -8 -10 -11 -5 -3 -10 -1 -10 4 0 6 5 11 10 11 6
0 10 -2 10 -4z m-1070 -10 c0 -2 -7 -7 -16 -10 -8 -3 -12 -2 -9 4 6 10 25 14
25 6z m97 -18 c-3 -8 -6 -5 -6 6 -1 11 2 17 5 13 3 -3 4 -12 1 -19z m1413 12
c0 -5 -9 -10 -21 -10 -11 0 -17 -4 -14 -10 3 -5 2 -10 -4 -10 -21 0 -21 21 1
29 31 13 38 13 38 1z m-540 -9 c0 -12 -20 -25 -27 -18 -7 7 6 27 18 27 5 0 9
-4 9 -9z m-790 -11 c8 -5 11 -10 5 -10 -5 0 -17 5 -25 10 -8 5 -10 10 -5 10 6
0 17 -5 25 -10z m525 0 c-3 -5 -12 -10 -18 -10 -7 0 -6 4 3 10 19 12 23 12 15
0z m907 -68 c3 -33 2 -50 -4 -44 -13 13 -30 91 -22 104 11 18 22 -6 26 -60z
m-837 48 c-3 -5 -10 -10 -16 -10 -5 0 -9 5 -9 10 0 6 7 10 16 10 8 0 12 -4 9
-10z m785 -31 c0 -4 -4 -11 -10 -14 -5 -3 -10 0 -10 9 0 8 -3 23 -6 33 -5 16
-4 16 10 -1 9 -11 16 -23 16 -27z m-620 11 c0 -11 -4 -20 -9 -20 -5 0 -11 9
-14 20 -3 13 0 20 9 20 8 0 14 -9 14 -20z m-850 -4 c0 -3 -4 -8 -10 -11 -5 -3
-10 -1 -10 4 0 6 5 11 10 11 6 0 10 -2 10 -4z m900 0 c0 -3 -4 -8 -10 -11 -5
-3 -10 -1 -10 4 0 6 5 11 10 11 6 0 10 -2 10 -4z m480 -30 c0 -8 6 -17 13 -20
6 -3 2 -3 -10 0 -19 4 -23 1 -23 -20 0 -14 -4 -26 -10 -26 -5 0 -10 11 -10 25
0 14 5 25 10 25 6 0 10 7 10 15 0 8 5 15 10 15 6 0 10 -6 10 -14z m170 4 c0
-5 -4 -10 -10 -10 -5 0 -10 5 -10 10 0 6 5 10 10 10 6 0 10 -4 10 -10z m-243
-24 c-7 -13 -15 -22 -19 -20 -10 6 9 44 21 44 5 0 4 -11 -2 -24z m-337 -26 c0
-5 -7 -10 -15 -10 -8 0 -15 5 -15 10 0 6 7 10 15 10 8 0 15 -4 15 -10z m86
-23 c10 -22 9 -24 -23 -23 -18 1 -33 6 -32 11 6 41 38 48 55 12z m-196 3 c0
-5 -4 -10 -10 -10 -5 0 -10 5 -10 10 0 6 5 10 10 10 6 0 10 -4 10 -10z m752
-27 c-1 -4 6 -15 14 -24 8 -9 14 -23 12 -30 -2 -10 6 -13 27 -11 27 2 28 1 13
-11 -10 -8 -19 -23 -19 -33 -1 -17 -2 -17 -6 -1 -4 17 -33 25 -33 9 0 -5 -16
-14 -35 -22 -19 -8 -35 -19 -36 -24 0 -6 -5 0 -10 13 -5 14 -15 21 -23 18 -8
-3 -16 2 -19 14 -4 16 -3 18 8 9 16 -13 82 -9 110 8 11 6 15 12 8 12 -6 0 -9
9 -5 22 4 17 2 20 -11 15 -19 -7 -28 22 -12 39 11 13 17 11 17 -3z m143 -28
c-33 -26 -50 -32 -39 -12 16 28 28 37 48 37 19 0 18 -2 -9 -25z m-867 -2 c-4
-22 -22 -20 -26 1 -2 10 3 16 13 16 10 0 15 -7 13 -17z m106 -3 c36 -13 32
-27 -6 -26 -18 0 -41 -4 -50 -8 -21 -10 -25 13 -6 32 15 15 29 15 62 2z m449
-10 c-3 -11 -9 -17 -14 -15 -10 7 -1 35 11 35 5 0 6 -9 3 -20z m114 -12 c-3
-8 -6 -5 -6 6 -1 11 2 17 5 13 3 -3 4 -12 1 -19z m343 2 c0 -5 -7 -10 -15 -10
-8 0 -15 5 -15 10 0 6 7 10 15 10 8 0 15 -4 15 -10z m-743 -16 c-3 -3 -12 -4
-19 -1 -8 3 -5 6 6 6 11 1 17 -2 13 -5z m438 -4 c-3 -5 -18 -10 -33 -9 l-27 1
25 8 c35 11 42 11 35 0z m-6095 -69 c216 -65 309 -91 331 -91 14 0 29 -4 35
-9 8 -8 134 -45 359 -107 116 -32 169 -51 172 -60 2 -5 -82 -10 -198 -13 -176
-3 -201 -1 -196 12 4 11 -6 18 -36 26 -90 23 -204 49 -247 55 -25 4 -67 14
-95 21 -60 17 -333 85 -340 85 -3 0 -5 31 -5 69 l0 68 78 -18 c42 -10 106 -27
142 -38z m5642 27 c-9 -9 -12 -7 -12 12 0 19 3 21 12 12 9 -9 9 -15 0 -24z
m45 16 c3 -8 -2 -23 -11 -32 -15 -15 -16 -14 -16 16 0 33 16 43 27 16z m743
-9 c0 -8 -2 -15 -4 -15 -2 0 -6 7 -10 15 -3 8 -1 15 4 15 6 0 10 -7 10 -15z
m-840 -32 c0 -13 -3 -13 -15 -3 -8 7 -15 19 -15 27 0 13 3 13 15 3 8 -7 15
-19 15 -27z m685 -13 c3 -5 2 -10 -4 -10 -5 0 -13 5 -16 10 -3 6 -2 10 4 10 5
0 13 -4 16 -10z m-905 -20 c0 -11 -7 -20 -15 -20 -17 0 -18 2 -9 24 9 23 24
20 24 -4z m760 10 c0 -5 -5 -10 -11 -10 -5 0 -7 5 -4 10 3 6 8 10 11 10 2 0 4
-4 4 -10z m365 0 c3 -5 1 -10 -4 -10 -6 0 -11 5 -11 10 0 6 2 10 4 10 3 0 8
-4 11 -10z m-5113 -62 c2 -21 1 -38 -4 -38 -11 0 -21 68 -13 87 9 20 11 14 17
-49z m4355 46 c3 -8 1 -20 -6 -27 -8 -8 -15 -6 -25 8 -8 11 -12 23 -10 27 9
14 34 9 41 -8z m721 -33 c4 -47 -6 -65 -30 -56 -20 8 -31 72 -15 91 23 26 42
11 45 -35z m-1002 23 c-3 -9 -6 -22 -6 -30 0 -8 -4 -14 -10 -14 -11 0 -14 43
-3 53 12 13 25 7 19 -9z m477 -5 c4 -16 3 -18 -9 -8 -7 6 -11 15 -8 20 8 13
11 11 17 -12z m-353 -19 c0 -5 -4 -10 -10 -10 -5 0 -10 5 -10 10 0 6 5 10 10
10 6 0 10 -4 10 -10z m503 -16 c-4 -11 1 -22 12 -30 18 -13 18 -14 -3 -14 -18
0 -22 6 -22 30 0 17 4 30 10 30 5 0 7 -7 3 -16z m-413 -4 c0 -5 -4 -10 -10
-10 -5 0 -10 5 -10 10 0 6 5 10 10 10 6 0 10 -4 10 -10z m90 0 c0 -5 -4 -10
-10 -10 -5 0 -10 5 -10 10 0 6 5 10 10 10 6 0 10 -4 10 -10z m637 -10 c2 -19
-8 -26 -20 -14 -7 7 2 34 12 34 4 0 7 -9 8 -20z m-427 -34 c-14 -7 -29 -11
-34 -8 -12 6 15 22 39 22 17 0 17 -2 -5 -14z m-627 -22 c-4 -10 -9 -12 -15 -6
-12 12 -1 35 12 27 5 -3 6 -13 3 -21z m-3976 -6 c-3 -8 -6 -5 -6 6 -1 11 2 17
5 13 3 -3 4 -12 1 -19z m4950 -8 c-1 -22 -12 -26 -23 -9 -3 6 0 15 7 20 18 12
18 12 16 -11z m-170 -7 c4 -10 9 -20 13 -23 4 -3 3 -16 -1 -30 -7 -24 -7 -24
-8 -2 -1 12 -10 31 -20 41 -11 11 -17 22 -13 25 10 11 23 6 29 -11z m-780 -25
c-3 -7 -5 -2 -5 12 0 14 2 19 5 13 2 -7 2 -19 0 -25z m173 22 c0 -5 -4 -10
-10 -10 -5 0 -10 5 -10 10 0 6 5 10 10 10 6 0 10 -4 10 -10z m522 -35 c2 -22
0 -34 -6 -32 -6 2 -11 20 -12 40 -1 46 12 39 18 -8z m-4635 -22 c-3 -10 -5 -2
-5 17 0 19 2 27 5 18 2 -10 2 -26 0 -35z m4695 30 c19 -17 24 -43 8 -43 -5 0
-10 5 -10 10 0 6 -7 10 -15 10 -8 0 -15 9 -15 20 0 24 8 25 32 3z m-772 -3 c0
-5 -4 -10 -10 -10 -5 0 -10 5 -10 10 0 6 5 10 10 10 6 0 10 -4 10 -10z m91
-30 c5 -3 4 -19 0 -35 -5 -17 -10 -24 -10 -17 -1 6 -8 12 -16 12 -9 0 -18 7
-22 16 -3 8 -12 13 -19 10 -7 -3 -16 -1 -19 4 -4 6 1 10 9 10 9 0 16 5 16 10
0 6 10 14 23 19 17 7 23 5 26 -8 2 -9 7 -18 12 -21z m269 10 c0 -11 -6 -20
-14 -20 -8 0 -16 -3 -19 -7 -2 -5 -2 -2 0 5 1 8 3 20 3 28 0 8 7 14 15 14 8 0
15 -9 15 -20z m546 -11 c-3 -17 -6 -38 -6 -46 0 -8 -5 -11 -11 -7 -6 3 -9 17
-6 30 2 13 0 24 -6 24 -5 0 -4 7 3 15 21 25 33 17 26 -16z m-756 -11 c0 -25
-3 -29 -12 -20 -18 18 -20 52 -3 52 10 0 15 -10 15 -32z m105 12 c3 -5 1 -10
-4 -10 -6 0 -11 5 -11 10 0 6 2 10 4 10 3 0 8 -4 11 -10z m592 -26 c7 -18 -22
-52 -34 -40 -4 4 1 14 11 22 11 7 16 17 13 21 -13 13 -34 -30 -32 -66 1 -35 2
-36 34 -33 28 3 33 1 27 -13 -3 -9 -6 -20 -6 -25 0 -4 -9 -10 -20 -13 -17 -4
-20 -2 -15 14 4 11 2 19 -4 19 -6 0 -11 -5 -11 -10 0 -11 -48 -3 -67 12 -7 5
-13 4 -17 -4 -5 -10 -7 -10 -12 0 -12 26 -24 10 -24 -35 -1 -39 -3 -45 -11
-30 -6 10 -8 37 -5 60 3 23 7 51 8 62 2 11 12 21 23 23 22 3 57 17 95 37 34
18 40 18 47 -1z m-570 -26 c-3 -8 -6 -5 -6 6 -1 11 2 17 5 13 3 -3 4 -12 1
-19z m369 -59 c-9 -19 -15 -26 -16 -17 0 21 23 74 27 61 2 -5 -3 -25 -11 -44z
m232 29 c-6 -18 -28 -21 -28 -4 0 9 7 16 16 16 9 0 14 -5 12 -12z m-808 -17
c0 -5 -7 -11 -15 -15 -9 -3 -15 0 -15 9 0 8 7 15 15 15 8 0 15 -4 15 -9z m180
-6 c0 -8 -4 -15 -9 -15 -13 0 -22 16 -14 24 11 11 23 6 23 -9z m-4158 -67 c-8
-8 -9 -4 -5 13 4 13 8 18 11 10 2 -7 -1 -18 -6 -23z m4848 12 c0 -16 -48 -58
-58 -51 -11 7 6 37 23 39 6 1 11 7 11 12 1 6 2 13 3 16 2 8 21 -6 21 -16z
m-306 -6 c10 -25 -2 -30 -19 -8 -13 18 -14 18 -8 -3 3 -13 1 -23 -5 -23 -18 0
-24 20 -12 35 16 20 36 19 44 -1z m-434 -25 c0 -5 -5 -7 -11 -3 -8 4 -9 0 -4
-15 4 -12 2 -21 -4 -21 -12 0 -15 33 -4 43 10 10 23 8 23 -4z m770 1 c0 -5 -4
-10 -10 -10 -5 0 -10 5 -10 10 0 6 5 10 10 10 6 0 10 -4 10 -10z m-426 -16 c4
-9 4 -19 2 -21 -8 -8 -26 8 -26 23 0 19 16 18 24 -2z m-548 -41 c-10 -10 -19
5 -10 18 6 11 8 11 12 0 2 -7 1 -15 -2 -18z m74 13 c0 -3 -4 -8 -10 -11 -5 -3
-10 -1 -10 4 0 6 5 11 10 11 6 0 10 -2 10 -4z m669 -20 c9 -10 8 -15 -3 -19
-8 -3 -16 2 -19 14 -6 22 6 25 22 5z m76 -14 c-3 -8 -5 -17 -5 -21 0 -4 -14
-8 -30 -8 -23 0 -29 4 -25 14 3 8 5 19 5 23 0 5 14 8 30 7 20 -1 29 -6 25 -15z
m-120 -2 c3 -5 1 -10 -4 -10 -6 0 -11 5 -11 10 0 6 2 10 4 10 3 0 8 -4 11 -10z
m-610 -19 c-3 -6 -11 -11 -17 -11 -6 0 -6 6 2 15 14 17 26 13 15 -4z m216
-152 c-2 -37 -9 -60 -23 -73 -26 -25 -33 -14 -14 23 9 16 16 49 16 71 0 29 4
40 13 37 8 -2 11 -21 8 -58z m-296 -7 c0 -18 -20 -15 -23 4 -3 10 1 15 10 12
7 -3 13 -10 13 -16z m171 -43 c-22 -43 -20 -56 4 -34 24 22 25 17 5 -21 -8
-16 -15 -42 -16 -59 -1 -18 -3 -23 -6 -12 -9 34 -28 11 -25 -29 4 -47 24 -73
45 -56 20 17 24 8 17 -45 -4 -41 -8 -48 -27 -48 -11 0 -25 -3 -29 -7 -4 -5
-20 -8 -36 -8 -25 0 -28 3 -23 20 6 18 3 20 -17 15 -16 -4 -27 0 -36 15 -7 11
-8 20 -3 20 5 0 26 16 47 36 35 31 37 36 22 45 -21 12 -23 42 -5 61 21 22 57
102 57 129 0 34 10 43 28 25 13 -12 12 -18 -2 -47z m224 51 c0 -5 -4 -10 -10
-10 -5 0 -10 5 -10 10 0 6 5 10 10 10 6 0 10 -4 10 -10z m-4291 -42 c1 -5 -3
-8 -9 -8 -5 0 -10 12 -9 28 0 24 1 25 9 7 5 -11 9 -23 9 -27z m4321 -29 c0
-60 -11 -74 -38 -47 -14 14 -16 48 -3 48 5 0 12 16 15 35 10 54 26 32 26 -36z
m275 31 c-3 -6 -10 -10 -16 -10 -10 0 -12 33 -2 44 9 9 26 -22 18 -34z m-115
26 c0 -3 -4 -8 -10 -11 -5 -3 -10 -1 -10 4 0 6 5 11 10 11 6 0 10 -2 10 -4z
m-510 -18 c0 -7 4 -19 9 -27 8 -13 12 -13 27 0 15 12 16 12 11 -1 -4 -8 -10
-23 -13 -32 -8 -24 -20 -23 -27 3 -3 12 -10 18 -15 15 -11 -7 -21 22 -15 42 3
6 9 12 14 12 5 0 9 -6 9 -12z m-2680 -18 c0 -5 -4 -10 -9 -10 -6 0 -13 5 -16
10 -3 6 1 10 9 10 9 0 16 -4 16 -10z m2820 6 c0 -3 -4 -8 -10 -11 -5 -3 -10
-1 -10 4 0 6 5 11 10 11 6 0 10 -2 10 -4z m-2955 -16 c3 -5 1 -10 -4 -10 -6 0
-11 5 -11 10 0 6 2 10 4 10 3 0 8 -4 11 -10z m3445 -14 c0 -3 -4 -8 -10 -11
-5 -3 -10 -1 -10 4 0 6 5 11 10 11 6 0 10 -2 10 -4z m-3465 -16 c3 -5 1 -10
-4 -10 -6 0 -11 5 -11 10 0 6 2 10 4 10 3 0 8 -4 11 -10z m2755 -6 c0 -8 5
-12 10 -9 6 3 10 -1 10 -9 0 -9 -5 -16 -11 -16 -16 0 -41 29 -34 40 9 15 25
12 25 -6z m-2600 -34 c0 -5 -4 -10 -10 -10 -5 0 -10 5 -10 10 0 6 5 10 10 10
6 0 10 -4 10 -10z m3033 -31 c8 -13 3 -26 -20 -58 l-30 -41 -6 36 c-11 67 27
110 56 63z m77 11 c0 -5 -4 -10 -10 -10 -5 0 -10 5 -10 10 0 6 5 10 10 10 6 0
10 -4 10 -10z m157 -46 c-5 -27 -2 -36 13 -44 35 -19 42 -45 19 -74 -11 -14
-25 -26 -31 -26 -6 0 -3 9 7 20 18 20 17 20 -9 20 -27 0 -27 0 -25 68 3 75 6
85 21 76 6 -4 8 -22 5 -40z m-3349 -25 c-3 -10 66 -57 84 -59 3 0 9 8 11 18 4
14 5 14 6 -3 0 -11 -6 -31 -16 -44 -15 -22 -17 -23 -29 -7 -7 10 -15 17 -18
17 -28 -4 -36 2 -36 24 0 13 -7 28 -16 33 -9 5 -14 14 -10 21 9 14 27 14 24 0z
m2989 -41 c-3 -8 -6 -5 -6 6 -1 11 2 17 5 13 3 -3 4 -12 1 -19z m-29 -40 l-13
-23 -3 22 c-4 26 21 61 26 38 2 -8 -3 -24 -10 -37z m-2838 2 c0 -5 -5 -10 -11
-10 -5 0 -7 5 -4 10 3 6 8 10 11 10 2 0 4 -4 4 -10z m2560 -35 c0 -5 -5 -3
-10 5 -5 8 -10 20 -10 25 0 6 5 3 10 -5 5 -8 10 -19 10 -25z m-2687 5 c3 -11
2 -20 -3 -20 -4 0 -10 9 -13 20 -3 11 -2 20 3 20 4 0 10 -9 13 -20z m137 -17
c-11 -17 -11 -17 -6 0 3 10 6 24 7 30 0 9 2 9 5 0 3 -7 0 -20 -6 -30z m3270
-2 c0 -5 -7 -11 -15 -15 -15 -5 -20 5 -8 17 9 10 23 9 23 -2z m-425 -11 c3 -5
1 -10 -4 -10 -6 0 -11 5 -11 10 0 6 2 10 4 10 3 0 8 -4 11 -10z m-3070 -51
c11 -17 0 -20 -21 -4 -17 13 -17 14 -2 15 9 0 20 -5 23 -11z m3058 -186 c-3
-93 -8 -170 -10 -172 -7 -9 -94 -10 -88 -1 3 4 -4 6 -15 3 -11 -3 -20 -12 -20
-20 0 -8 -13 -19 -30 -24 -23 -9 -31 -18 -35 -47 -17 -105 -24 -59 -24 176
l-1 252 115 0 114 0 -6 -167z m-3066 151 c-3 -3 -12 -4 -19 -1 -8 3 -5 6 6 6
11 1 17 -2 13 -5z m1590 -490 c-3 -3 -12 -4 -19 -1 -8 3 -5 6 6 6 11 1 17 -2
13 -5z m1273 -71 c0 -21 -3 -24 -9 -14 -5 8 -7 20 -4 28 8 21 13 15 13 -14z
m-66 -39 c9 -3 16 -12 16 -20 0 -12 -4 -12 -20 -2 -30 19 -27 34 4 22z m-2803
-17 c-1 -12 -15 -9 -19 4 -3 6 1 10 8 8 6 -3 11 -8 11 -12z m559 3 c0 -7 -14
-8 -37 -4 -52 9 -54 14 -5 14 23 0 42 -5 42 -10z m2314 -15 c-4 -8 -8 -15 -10
-15 -2 0 -4 7 -4 15 0 8 4 15 10 15 5 0 7 -7 4 -15z m-2146 -4 c21 -13 -5 -19
-53 -13 -40 6 -40 6 -10 13 43 10 48 10 63 0z m-788 -21 c0 -5 -4 -10 -10 -10
-5 0 -10 5 -10 10 0 6 5 10 10 10 6 0 10 -4 10 -10z m70 -30 c-24 -15 -31 -11
-18 10 9 13 16 16 23 9 7 -7 5 -13 -5 -19z m2772 -15 c-2 -15 -8 -23 -13 -18
-10 10 0 55 11 48 4 -2 5 -16 2 -30z m-2742 -94 c0 -16 -19 -23 -73 -27 -31
-2 -54 1 -58 8 -6 9 -12 8 -23 -1 -14 -12 -16 -10 -16 8 0 20 5 21 85 21 47 0
85 -4 85 -9z m2505 -121 c3 -5 2 -10 -4 -10 -5 0 -13 5 -16 10 -3 6 -2 10 4
10 5 0 13 -4 16 -10z m40 -40 c3 -5 2 -10 -4 -10 -5 0 -13 5 -16 10 -3 6 -2
10 4 10 5 0 13 -4 16 -10z m-3145 -240 c0 -5 -8 -10 -17 -10 -15 0 -16 2 -3
10 19 12 20 12 20 0z m2695 -73 l0 -57 -618 -3 c-339 -2 -621 -1 -625 2 -5 4
-10 32 -11 64 l-2 57 628 -2 628 -3 0 -58z m2105 -13 c0 -2 -7 -4 -15 -4 -8 0
-15 4 -15 10 0 5 7 7 15 4 8 -4 15 -8 15 -10z m114 -77 c8 -13 7 -20 -4 -27
-16 -10 -30 -4 -30 13 0 7 4 6 10 -3 9 -13 10 -13 10 1 0 8 -6 21 -12 28 -11
11 -10 13 1 9 8 -2 19 -12 25 -21z m-5361 -4 c-7 -2 -19 -2 -25 0 -7 3 -2 5
12 5 14 0 19 -2 13 -5z m5384 -25 c-3 -8 -6 -5 -6 6 -1 11 2 17 5 13 3 -3 4
-12 1 -19z m-5590 -15 c-9 -2 -15 -9 -12 -14 4 -5 17 -6 31 -3 14 4 24 2 24
-5 0 -6 -16 -11 -35 -11 -19 0 -35 5 -35 11 0 6 -9 8 -20 4 -11 -3 -20 -2 -20
3 0 14 19 20 55 20 17 0 22 -2 12 -5z m-77 -13 c0 -5 -4 -10 -9 -10 -6 0 -13
5 -16 10 -3 6 1 10 9 10 9 0 16 -4 16 -10z m4157 -26 c-3 -3 -12 -4 -19 -1 -8
3 -5 6 6 6 11 1 17 -2 13 -5z m1660 0 c-3 -3 -12 -4 -19 -1 -8 3 -5 6 6 6 11
1 17 -2 13 -5z m133 -69 c0 -8 -4 -15 -10 -15 -5 0 -10 7 -10 15 0 8 5 15 10
15 6 0 10 -7 10 -15z m-980 -35 c0 -22 -25 -18 -34 6 -3 9 1 14 14 14 13 0 20
-7 20 -20z m1146 -32 c16 -16 -11 -23 -94 -25 -60 -1 -78 1 -57 6 l30 9 -27 1
c-16 0 -28 6 -28 12 0 13 163 9 176 -3z m-1586 -19 c0 -5 -4 -9 -10 -9 -5 0
-10 7 -10 16 0 8 5 12 10 9 6 -3 10 -10 10 -16z m1916 11 c79 0 144 -3 144 -7
0 -5 -76 -8 -170 -8 -135 0 -171 3 -175 14 -4 10 2 12 26 7 17 -3 96 -6 175
-6z m-1876 -10 c0 -5 -5 -10 -11 -10 -5 0 -7 5 -4 10 3 6 8 10 11 10 2 0 4 -4
4 -10z m1633 3 c-7 -2 -19 -2 -25 0 -7 3 -2 5 12 5 14 0 19 -2 13 -5z m-6915
-53 c16 -5 -46 -8 -153 -8 -165 0 -177 1 -140 14 42 14 239 10 293 -6z m-358
-18 c0 -18 -76 -33 -211 -43 -145 -10 -168 -6 -156 25 5 11 26 16 89 19 179 7
278 7 278 -1z m6163 -29 c-24 -2 -62 -2 -85 0 -24 2 -5 4 42 4 47 0 66 -2 43
-4z m820 0 c-13 -2 -33 -2 -45 0 -13 2 -3 4 22 4 25 0 35 -2 23 -4z m285 0
c-10 -2 -26 -2 -35 0 -10 3 -2 5 17 5 19 0 27 -2 18 -5z m125 0 c-7 -2 -19 -2
-25 0 -7 3 -2 5 12 5 14 0 19 -2 13 -5z m307 -13 c-36 -12 -60 -12 -60 0 0 6
19 10 43 9 36 -1 38 -2 17 -9z m-315 -11 c11 -5 -34 -5 -100 -2 -66 3 -122 8
-125 10 -8 8 204 0 225 -8z m202 5 c-3 -3 -12 -4 -19 -1 -8 3 -5 6 6 6 11 1
17 -2 13 -5z m-114 -11 c-7 -2 -19 -2 -25 0 -7 3 -2 5 12 5 14 0 19 -2 13 -5z
m-3253 -53 c14 -4 -8 -5 -50 -2 -41 2 -77 6 -79 8 -8 7 104 2 129 -6z m-187
-17 c-7 -2 -21 -2 -30 0 -10 3 -4 5 12 5 17 0 24 -2 18 -5z m285 -10 c-15 -2
-42 -2 -60 0 -18 2 -6 4 27 4 33 0 48 -2 33 -4z m-405 -10 c-7 -2 -19 -2 -25
0 -7 3 -2 5 12 5 14 0 19 -2 13 -5z m74 1 c-3 -3 -12 -4 -19 -1 -8 3 -5 6 6 6
11 1 17 -2 13 -5z m-1184 -51 c-7 -2 -21 -2 -30 0 -10 3 -4 5 12 5 17 0 24 -2
18 -5z m-1486 -69 c-3 -3 -12 -4 -19 -1 -8 3 -5 6 6 6 11 1 17 -2 13 -5z m131
-1 c-10 -2 -26 -2 -35 0 -10 3 -2 5 17 5 19 0 27 -2 18 -5z m247 2 c-22 -7
-169 -12 -150 -4 11 4 52 8 90 8 39 -1 66 -2 60 -4z m83 -2 c-10 -2 -28 -2
-40 0 -13 2 -5 4 17 4 22 1 32 -1 23 -4z m-560 -10 c-15 -2 -42 -2 -60 0 -18
2 -6 4 27 4 33 0 48 -2 33 -4z m289 1 c-3 -3 -12 -4 -19 -1 -8 3 -5 6 6 6 11
1 17 -2 13 -5z m-807 -14 c0 -5 -7 -10 -16 -10 -8 0 -12 5 -9 10 3 6 10 10 16
10 5 0 9 -4 9 -10z m278 3 c-15 -2 -42 -2 -60 0 -18 2 -6 4 27 4 33 0 48 -2
33 -4z"/>
<path d="M6745 5469 c-3 -4 -1 -10 5 -14 6 -4 8 -11 5 -16 -11 -17 11 -9 28
11 9 11 17 22 17 24 0 7 -51 3 -55 -5z"/>
<path d="M7700 4896 c0 -9 5 -16 10 -16 6 0 10 4 10 9 0 6 -4 13 -10 16 -5 3
-10 -1 -10 -9z"/>
<path d="M7386 4644 c-3 -8 1 -14 9 -14 20 0 28 17 11 23 -8 3 -17 -1 -20 -9z"/>
<path d="M7400 4610 c0 -5 7 -10 16 -10 8 0 12 5 9 10 -3 6 -10 10 -16 10 -5
0 -9 -4 -9 -10z"/>
<path d="M241 6794 c0 -11 3 -14 6 -6 3 7 2 16 -1 19 -3 4 -6 -2 -5 -13z"/>
<path d="M2712 6515 c0 -22 3 -65 8 -95 6 -48 7 -50 8 -15 0 22 -3 65 -8 95
-6 48 -7 50 -8 15z"/>
<path d="M2731 6334 c0 -11 3 -14 6 -6 3 7 2 16 -1 19 -3 4 -6 -2 -5 -13z"/>
<path d="M6294 6196 c-3 -14 -12 -27 -21 -30 -8 -3 -11 -10 -8 -16 3 -6 0 -13
-9 -16 -12 -5 -13 -10 -4 -30 13 -27 28 -32 28 -9 0 8 5 15 11 15 5 0 7 -4 4
-10 -3 -5 -1 -10 4 -10 8 0 7 -7 -1 -20 -7 -10 -9 -22 -6 -25 9 -10 58 25 58
41 0 17 5 17 31 4 13 -8 19 -7 19 0 0 14 -25 40 -39 40 -14 0 -30 32 -24 47 4
12 -19 43 -31 43 -3 0 -8 -11 -12 -24z"/>
<path d="M5521 6145 c-1 -6 6 -21 15 -33 12 -18 19 -21 30 -11 17 14 9 29 -16
29 -10 0 -21 6 -23 13 -3 6 -6 7 -6 2z"/>
<path d="M5752 5978 c5 -15 28 -23 28 -10 0 5 -7 13 -16 16 -10 4 -14 1 -12
-6z"/>
<path d="M2773 5902 c-6 -11 -8 -25 -3 -32 12 -19 69 8 67 32 -2 24 -48 24
-64 0z m47 -2 c0 -5 -5 -10 -11 -10 -5 0 -7 5 -4 10 3 6 8 10 11 10 2 0 4 -4
4 -10z"/>
<path d="M7240 5910 c0 -5 5 -10 10 -10 6 0 10 5 10 10 0 6 -4 10 -10 10 -5 0
-10 -4 -10 -10z"/>
<path d="M2842 5838 c3 -7 13 -15 22 -16 12 -3 17 1 14 10 -3 7 -13 15 -22 16
-12 3 -17 -1 -14 -10z"/>
<path d="M6940 5820 c0 -5 5 -10 10 -10 6 0 10 5 10 10 0 6 -4 10 -10 10 -5 0
-10 -4 -10 -10z"/>
<path d="M177 5813 c-17 -17 -3 -33 46 -51 80 -30 89 -12 16 33 -41 26 -51 29
-62 18z"/>
<path d="M2502 5808 c-7 -7 -12 -18 -12 -26 0 -10 7 -9 29 4 17 10 28 21 25
26 -7 12 -28 10 -42 -4z"/>
<path d="M7200 5790 c0 -5 7 -10 15 -10 8 0 15 5 15 10 0 6 -7 10 -15 10 -8 0
-15 -4 -15 -10z"/>
<path d="M2418 5783 c-10 -2 -18 -11 -18 -19 0 -8 -5 -14 -11 -14 -5 0 -7 -5
-3 -11 8 -14 60 -4 80 16 27 27 2 41 -48 28z"/>
<path d="M5320 5765 c7 -8 9 -22 6 -31 -9 -24 2 -36 25 -24 24 13 25 30 2 30
-17 1 -17 1 -1 14 21 16 13 26 -20 26 -20 0 -22 -2 -12 -15z"/>
<path d="M5273 5741 c-10 -16 -9 -20 4 -25 16 -7 45 22 37 36 -9 14 -29 8 -41
-11z"/>
<path d="M2330 5725 c-7 -8 -9 -15 -6 -15 4 0 14 7 22 15 9 8 11 15 6 15 -5 0
-15 -7 -22 -15z"/>
<path d="M2250 5700 c-9 -6 -10 -10 -3 -10 6 0 15 5 18 10 8 12 4 12 -15 0z"/>
<path d="M5333 5693 c-22 -4 -33 -33 -13 -33 6 0 10 5 10 11 0 7 12 10 30 7
19 -3 29 -1 27 6 -4 13 -22 15 -54 9z"/>
<path d="M5287 5644 c-9 -9 12 -46 23 -39 4 3 6 14 3 25 -5 20 -15 25 -26 14z"/>
<path d="M5351 5534 c0 -11 3 -14 6 -6 3 7 2 16 -1 19 -3 4 -6 -2 -5 -13z"/>
<path d="M5301 5384 c0 -11 3 -14 6 -6 3 7 2 16 -1 19 -3 4 -6 -2 -5 -13z"/>
<path d="M5398 5324 c-5 -4 -8 -16 -8 -28 0 -14 3 -17 11 -9 6 6 9 19 7 28 -1
9 -6 13 -10 9z"/>
<path d="M5430 5300 c0 -5 5 -10 10 -10 6 0 10 5 10 10 0 6 -4 10 -10 10 -5 0
-10 -4 -10 -10z"/>
<path d="M5360 5263 c0 -5 11 -8 25 -8 14 0 25 3 25 8 0 4 -11 7 -25 7 -14 0
-25 -3 -25 -7z"/>
<path d="M5306 5241 c-3 -5 12 -11 34 -13 43 -4 42 5 -2 16 -15 3 -29 2 -32
-3z"/>
<path d="M5200 5210 c-21 -6 -22 -9 -8 -14 9 -4 28 -6 43 -4 23 3 24 4 8 14
-10 6 -29 7 -43 4z"/>
<path d="M5400 5200 c0 -5 7 -7 15 -4 8 4 15 8 15 10 0 2 -7 4 -15 4 -8 0 -15
-4 -15 -10z"/>
<path d="M9488 5123 c6 -2 18 -2 25 0 6 3 1 5 -13 5 -14 0 -19 -2 -12 -5z"/>
<path d="M9503 5083 c-28 -5 -30 -23 -3 -23 11 0 20 -3 20 -7 1 -5 12 -21 26
-38 14 -17 22 -22 18 -11 -6 15 -3 17 14 11 20 -6 22 -3 22 28 0 43 -25 54
-97 40z m62 -43 c3 -6 -1 -7 -9 -4 -18 7 -21 14 -7 14 6 0 13 -4 16 -10z"/>
<path d="M9304 5068 c-4 -7 -3 -8 4 -4 6 4 20 2 31 -3 14 -8 20 -7 24 2 6 15
-50 20 -59 5z"/>
<path d="M9393 5053 c9 -2 23 -2 30 0 6 3 -1 5 -18 5 -16 0 -22 -2 -12 -5z"/>
<path d="M5500 4730 c-113 -4 -318 -8 -457 -9 l-252 -1 -6 -52 c-3 -29 -5
-190 -3 -356 l3 -304 165 3 c91 1 185 3 210 4 25 1 216 8 425 14 209 7 381 14
384 16 2 2 0 159 -4 349 l-8 346 -126 -2 c-69 -1 -218 -5 -331 -8z m-6 -62
c80 -23 138 -69 174 -138 27 -54 32 -73 32 -136 0 -97 -29 -164 -96 -222 -79
-68 -122 -85 -207 -80 -174 9 -299 148 -284 314 8 79 25 121 73 174 79 88 195
121 308 88z"/>
<path d="M5307 4574 c-77 -42 -121 -112 -122 -195 0 -48 5 -64 31 -100 44 -63
103 -91 180 -87 46 3 68 10 92 28 45 36 48 52 7 34 -101 -42 -208 13 -222 114
-8 57 2 86 41 126 49 51 141 60 204 19 13 -8 25 -13 27 -11 7 7 -44 57 -73 72
-39 20 -128 20 -165 0z"/>
<path d="M5475 4449 c-7 -31 -9 -33 -59 -44 l-30 -6 30 -19 c33 -22 45 -54 32
-88 -9 -26 1 -23 39 11 20 18 23 18 54 3 18 -9 34 -14 36 -13 2 2 -3 17 -12
33 -20 38 -19 40 11 79 l26 34 -44 -2 c-36 -2 -44 2 -53 21 -13 30 -22 28 -30
-9z"/>
<path d="M7740 4551 c0 -6 5 -13 10 -16 6 -3 10 1 10 9 0 9 -4 16 -10 16 -5 0
-10 -4 -10 -9z"/>
<path d="M7810 4535 c7 -8 17 -15 22 -15 6 0 5 7 -2 15 -7 8 -17 15 -22 15 -6
0 -5 -7 2 -15z"/>
<path d="M7773 4473 c-19 -7 -16 -20 7 -26 13 -3 20 0 20 8 0 17 -11 24 -27
18z"/>
<path d="M7620 4410 c0 -5 4 -10 9 -10 6 0 13 5 16 10 3 6 -1 10 -9 10 -9 0
-16 -4 -16 -10z"/>
<path d="M7568 4342 c-20 -2 -42 -10 -49 -18 -18 -21 -17 -123 1 -134 11 -7
16 -4 18 10 2 12 11 20 22 20 17 0 18 -9 13 -132 -2 -73 -1 -129 3 -125 4 3
11 69 15 144 4 76 12 158 18 183 5 25 7 47 3 50 -4 3 -24 4 -44 2z"/>
<path d="M8755 4132 c-4 -15 -14 -35 -22 -45 -16 -16 -17 -16 -40 5 -13 12
-23 17 -23 11 0 -6 -9 -13 -20 -16 -11 -3 -20 -1 -20 3 0 10 -47 7 -57 -3 -4
-4 -21 -4 -39 -1 -25 5 -36 1 -50 -15 -20 -23 -34 -19 -35 12 0 21 -1 21 -12
-3 -14 -33 -13 -31 -29 -34 -7 -1 -17 -4 -23 -7 -5 -3 -26 -6 -45 -8 -21 -1
-41 -9 -50 -22 -13 -16 -18 -17 -28 -7 -8 8 -15 9 -20 3 -8 -11 -21 -13 -101
-16 -44 -2 -56 2 -70 19 -12 15 -23 19 -43 15 -28 -5 -28 -6 -28 -84 l0 -79
110 0 110 0 0 -215 c0 -137 4 -215 10 -215 9 0 17 281 11 388 l-3 42 86 0 86
0 0 -215 c0 -144 3 -215 11 -215 7 0 9 68 6 214 l-4 213 201 7 c111 3 375 9
589 12 l387 7 0 112 c0 106 -1 113 -19 108 -10 -2 -24 -16 -30 -29 -12 -26
-41 -33 -41 -9 0 27 -20 16 -26 -15 -8 -38 -24 -39 -24 -1 0 26 -3 29 -25 27
-14 -2 -31 -8 -37 -14 -19 -19 -30 -14 -18 7 14 27 13 41 -5 41 -8 0 -15 -8
-16 -17 0 -10 -3 -13 -5 -7 -3 6 -16 9 -29 6 -21 -4 -25 -1 -25 22 0 15 -6 26
-13 26 -21 0 -27 -11 -17 -30 8 -14 4 -22 -15 -34 -23 -15 -27 -15 -40 -2 -8
8 -15 22 -15 31 0 16 -2 16 -23 2 -25 -16 -57 -7 -57 16 0 7 -4 18 -9 26 -14
22 -41 -4 -41 -39 0 -27 -21 -46 -35 -32 -3 4 -23 7 -43 8 -65 2 -72 4 -72 19
0 21 -9 19 -30 -7 -17 -22 -19 -22 -37 -6 -13 12 -23 14 -33 8 -23 -15 -30
-12 -30 11 0 11 -6 27 -14 34 -12 12 -15 11 -21 -13z"/>
<path d="M4138 4103 c-2 -5 0 -39 3 -78 l5 -70 2 78 c2 70 -1 90 -10 70z"/>
<path d="M7946 3958 c-3 -68 -6 -209 -6 -314 0 -106 -3 -199 -6 -208 -4 -10
-1 -16 9 -16 8 0 17 6 20 13 4 12 -3 640 -8 645 -1 1 -5 -53 -9 -120z"/>
<path d="M3807 3993 c-4 -3 -7 -11 -7 -17 0 -6 5 -5 12 2 6 6 9 14 7 17 -3 3
-9 2 -12 -2z"/>
<path d="M4134 3897 c-21 -62 -21 -62 16 -64 27 -1 30 0 12 5 -27 8 -28 9 -11
45 8 17 9 31 3 37 -6 6 -13 -3 -20 -23z"/>
<path d="M7545 3900 c-17 -7 -15 -9 13 -9 17 -1 32 4 32 9 0 12 -17 12 -45 0z"/>
<path d="M7613 3903 c9 -2 23 -2 30 0 6 3 -1 5 -18 5 -16 0 -22 -2 -12 -5z"/>
<path d="M7683 3903 c9 -2 23 -2 30 0 6 3 -1 5 -18 5 -16 0 -22 -2 -12 -5z"/>
<path d="M7738 3903 c7 -3 16 -2 19 1 4 3 -2 6 -13 5 -11 0 -14 -3 -6 -6z"/>
<path d="M4170 3890 c-12 -7 -12 -12 -3 -21 15 -15 26 -7 21 15 -2 11 -7 13
-18 6z"/>
<path d="M7548 3785 c-5 -59 -14 -78 -27 -56 -15 24 -21 -5 -15 -68 4 -36 12
-61 18 -61 7 0 12 -17 11 -44 0 -24 -3 -42 -7 -39 -5 2 -8 11 -8 19 0 9 -11
14 -30 14 -16 0 -30 4 -30 10 0 5 -11 9 -25 8 -17 -2 -25 -8 -25 -22 0 -11 -7
-28 -17 -38 -9 -11 -11 -18 -5 -18 7 0 12 -9 12 -20 0 -11 -5 -20 -12 -20 -6
0 -8 -3 -5 -7 4 -3 2 -12 -5 -20 -9 -11 23 -13 208 -9 120 3 221 5 224 6 2 0
-1 5 -7 11 -12 12 -6 49 9 49 5 0 6 4 3 10 -10 16 -45 -12 -45 -36 0 -19 -3
-20 -45 -10 -24 6 -39 13 -33 17 7 4 1 9 -13 11 -13 2 -28 13 -34 26 -6 14
-22 26 -39 29 -28 6 -28 6 -22 62 9 74 9 83 1 174 -9 93 -30 106 -37 22z"/>
<path d="M7440 3699 c0 -5 5 -7 10 -4 6 3 10 8 10 11 0 2 -4 4 -10 4 -5 0 -10
-5 -10 -11z"/>
<path d="M8452 3590 c0 -19 2 -27 5 -17 2 9 2 25 0 35 -3 9 -5 1 -5 -18z"/>
<path d="M7410 3600 c0 -6 7 -10 15 -10 8 0 15 2 15 4 0 2 -7 6 -15 10 -8 3
-15 1 -15 -4z"/>
<path d="M8932 3515 c-1 -14 3 -25 8 -25 6 0 10 7 10 15 0 8 0 18 1 22 0 4 -3
9 -8 10 -5 2 -10 -8 -11 -22z"/>
<path d="M7768 3513 c7 -3 16 -2 19 1 4 3 -2 6 -13 5 -11 0 -14 -3 -6 -6z"/>
<path d="M7835 3475 c0 -25 -3 -45 -7 -45 -5 0 -8 -4 -8 -9 0 -8 90 -3 100 6
2 2 -2 8 -9 12 -11 7 -11 10 0 14 12 4 11 7 -1 16 -8 6 -12 11 -8 11 18 0 -29
40 -47 40 -18 0 -20 -6 -20 -45z"/>
<path d="M8820 3490 c0 -5 5 -10 10 -10 6 0 10 5 10 10 0 6 -4 10 -10 10 -5 0
-10 -4 -10 -10z"/>
<path d="M8880 3470 c0 -10 -8 -24 -17 -29 -17 -10 -17 -10 0 -11 9 0 17 -4
17 -10 0 -5 -9 -10 -20 -10 -18 0 -24 10 -22 31 1 4 -9 15 -21 25 -12 10 -16
12 -9 4 17 -20 15 -30 -5 -30 -15 0 -14 -4 6 -19 20 -15 21 -19 7 -24 -9 -4
-16 -3 -16 1 0 4 -8 12 -18 19 -17 10 -18 8 -14 -15 3 -15 12 -33 21 -40 15
-12 14 -13 -1 -8 -9 2 -22 -2 -28 -10 -17 -19 -27 -18 -35 6 -3 11 -11 20 -17
20 -7 0 -6 -5 2 -15 6 -8 9 -19 5 -25 -3 -5 0 -10 8 -10 23 0 36 -23 30 -52
-6 -32 -23 -38 -23 -8 0 11 -4 20 -10 20 -5 0 -10 -7 -10 -15 0 -17 -16 -20
-25 -6 -3 5 0 13 6 17 8 5 7 9 -2 15 -10 6 -10 13 -1 33 9 21 9 26 -2 26 -7 0
-19 -7 -26 -15 -7 -8 -9 -15 -5 -15 4 0 0 -11 -9 -25 -12 -18 -16 -49 -16
-119 l0 -94 43 -7 c76 -13 78 -16 76 -106 -1 -44 0 -81 2 -83 2 -2 45 -6 94
-9 82 -6 92 -5 102 13 11 16 9 21 -18 34 -17 9 -54 19 -83 22 -28 4 -45 9 -38
11 14 5 17 43 2 43 -14 0 -13 47 1 56 8 4 7 9 -2 16 -11 8 -10 8 4 4 12 -4 21
1 27 17 7 18 9 19 9 3 1 -11 6 -16 14 -13 7 3 37 1 67 -5 44 -8 56 -7 69 7 15
14 14 16 -7 21 -12 4 -22 10 -22 14 0 5 12 5 28 1 15 -4 26 -12 24 -17 -6 -17
43 -22 228 -23 102 -1 195 -4 208 -7 19 -6 22 -13 22 -60 l0 -54 60 0 60 0 -1
198 0 197 -19 -40 c-18 -37 -19 -38 -20 -13 0 14 6 29 13 31 9 4 8 8 -3 16
-12 8 -16 5 -21 -17 -4 -15 -7 -19 -8 -9 -1 16 -21 25 -21 9 0 -4 -9 -13 -21
-20 -20 -13 -21 -12 -14 17 6 27 4 29 -16 24 -17 -5 -20 -3 -14 7 6 9 4 11 -4
5 -7 -4 -11 -18 -8 -31 3 -18 0 -24 -11 -22 -8 2 -17 -3 -19 -9 -3 -7 3 -13
13 -13 13 0 15 -3 7 -11 -7 -7 -19 -9 -28 -5 -14 5 -16 15 -12 56 4 32 2 48
-4 44 -6 -3 -13 3 -16 14 -3 13 -11 18 -19 15 -8 -3 -14 0 -14 7 0 6 -5 8 -11
4 -6 -3 -9 -17 -6 -30 3 -16 0 -24 -10 -24 -8 0 -12 4 -8 9 7 12 -21 28 -58
35 -19 3 -26 0 -31 -17 -7 -26 2 -36 14 -17 8 13 10 13 10 -1 0 -9 -9 -19 -20
-22 -11 -3 -20 -9 -19 -14 1 -4 0 -17 -1 -28 -2 -17 -3 -16 -10 5 -4 14 -5 35
-3 48 3 13 0 22 -7 22 -6 0 -8 5 -5 10 4 6 11 8 16 5 5 -4 9 -1 9 4 0 6 -4 11
-10 11 -5 0 -10 7 -10 15 0 8 -5 15 -11 15 -5 0 -8 -4 -4 -10 9 -15 -6 -60
-20 -60 -20 0 -30 21 -14 31 7 4 10 11 6 15 -4 4 -14 -1 -21 -12 -14 -18 -15
-18 -21 -1 -4 9 -12 17 -18 17 -5 0 -25 16 -44 35 -33 34 -63 46 -63 24 0 -6
7 -8 16 -5 12 5 15 2 11 -13 -3 -14 0 -17 13 -14 26 7 35 -16 14 -32 -11 -7
-22 -11 -26 -9 -5 3 -8 -4 -8 -14 0 -27 -27 -49 -42 -34 -8 8 -9 12 -1 12 16
0 27 90 13 104 -8 8 -15 6 -25 -7 -13 -18 -14 -18 -27 2 -16 26 -28 27 -28 1z
m60 -80 c0 -5 -2 -10 -4 -10 -3 0 -8 5 -11 10 -3 6 -1 10 4 10 6 0 11 -4 11
-10z m-60 -10 c0 -5 -4 -10 -10 -10 -5 0 -10 5 -10 10 0 6 5 10 10 10 6 0 10
-4 10 -10z m240 -10 c0 -5 -4 -10 -10 -10 -5 0 -10 5 -10 10 0 6 5 10 10 10 6
0 10 -4 10 -10z m250 -23 c0 -4 -6 -2 -14 5 -8 7 -12 17 -9 22 5 8 23 -12 23
-27z m-350 15 c0 -5 -3 -12 -7 -16 -4 -3 -8 -16 -10 -28 -3 -21 -23 -41 -31
-33 -6 6 31 85 40 85 4 0 8 -4 8 -8z m55 -12 c3 -5 1 -10 -4 -10 -6 0 -11 5
-11 10 0 6 2 10 4 10 3 0 8 -4 11 -10z m-195 -10 c0 -5 -4 -10 -10 -10 -5 0
-10 5 -10 10 0 6 5 10 10 10 6 0 10 -4 10 -10z m67 -36 c-3 -3 -12 -4 -19 -1
-8 3 -5 6 6 6 11 1 17 -2 13 -5z m159 -36 c-8 -6 -6 -11 4 -19 12 -8 9 -9 -13
-4 -25 5 -27 4 -18 -13 7 -14 6 -24 -3 -38 -12 -16 -13 -13 -11 24 1 22 10 54
20 69 17 25 19 26 25 8 4 -11 2 -23 -4 -27z m68 34 c2 -4 -2 -16 -10 -27 -13
-18 -14 -18 -14 8 0 25 13 36 24 19z m-231 -30 c-20 -21 -28 -20 -20 3 4 8 13
15 22 15 13 0 12 -3 -2 -18z m77 4 c0 -2 -7 -9 -15 -16 -13 -11 -14 -10 -9 4
5 14 24 23 24 12z m-50 -10 c0 -11 -19 -15 -25 -6 -3 5 1 10 9 10 9 0 16 -2
16 -4z m290 -11 c0 -8 -2 -15 -4 -15 -2 0 -12 -3 -21 -6 -15 -6 -15 -4 -4 15
16 25 29 27 29 6z m150 -5 c0 -6 -15 -17 -32 -25 -18 -8 -29 -14 -24 -15 5 0
7 -2 4 -5 -7 -8 -38 5 -38 16 0 5 8 9 18 9 9 0 26 7 36 15 23 18 36 19 36 5z
m-565 -10 c3 -5 2 -10 -4 -10 -5 0 -13 5 -16 10 -3 6 -2 10 4 10 5 0 13 -4 16
-10z m115 -28 c-5 -2 -6 -10 -3 -18 3 -8 0 -14 -5 -14 -6 0 -9 9 -7 20 2 11
-1 20 -6 20 -6 0 -7 4 -4 10 4 6 11 5 20 -3 7 -6 9 -13 5 -15z m453 -9 c-7 -2
-19 -2 -25 0 -7 3 -2 5 12 5 14 0 19 -2 13 -5z m-553 -14 c0 -6 7 -9 15 -5 8
3 15 1 15 -4 0 -6 -6 -10 -14 -10 -8 0 -21 -3 -29 -6 -12 -4 -14 0 -10 15 6
22 23 29 23 10z m149 -26 c22 -6 27 -12 22 -26 -6 -17 -9 -16 -34 7 -15 14
-26 33 -26 43 1 17 2 17 6 1 2 -10 17 -21 32 -25z m21 17 c0 -5 -2 -10 -4 -10
-3 0 -8 5 -11 10 -3 6 -1 10 4 10 6 0 11 -4 11 -10z m420 6 c0 -3 -4 -8 -10
-11 -5 -3 -10 -1 -10 4 0 6 5 11 10 11 6 0 10 -2 10 -4z m-560 -45 c-26 -14
-70 -22 -70 -12 0 5 15 12 33 14 17 2 37 4 42 5 6 1 3 -2 -5 -7z"/>
<path d="M9050 3479 c0 -5 5 -7 10 -4 6 3 10 8 10 11 0 2 -4 4 -10 4 -5 0 -10
-5 -10 -11z"/>
<path d="M8010 3448 c0 -18 5 -28 15 -28 19 0 19 11 0 36 -14 18 -14 18 -15
-8z"/>
<path d="M7159 3453 c-1 -5 -2 -15 -3 -23 -1 -10 -17 -17 -51 -21 l-50 -6 40
-3 c70 -5 80 -5 88 -2 4 2 3 10 -4 18 -6 7 -9 21 -5 29 3 8 1 15 -4 15 -6 0
-11 -3 -11 -7z"/>
<path d="M9280 3420 c0 -11 4 -20 9 -20 5 0 7 9 4 20 -3 11 -7 20 -9 20 -2 0
-4 -9 -4 -20z"/>
<path d="M4888 3423 c7 -3 16 -2 19 1 4 3 -2 6 -13 5 -11 0 -14 -3 -6 -6z"/>
<path d="M7200 3419 c0 -12 24 -16 55 -9 28 6 28 7 -12 11 -24 2 -43 2 -43 -2z"/>
<path d="M4858 3393 c7 -3 16 -2 19 1 4 3 -2 6 -13 5 -11 0 -14 -3 -6 -6z"/>
<path d="M6960 3392 c0 -4 -19 -7 -42 -5 l-43 2 40 -8 c22 -5 45 -6 52 -4 15
6 17 23 3 23 -5 0 -10 -3 -10 -8z"/>
<path d="M7036 3381 c-4 -5 3 -7 14 -4 23 6 26 13 6 13 -8 0 -17 -4 -20 -9z"/>
<path d="M3832 3346 c7 -8 16 -12 21 -9 11 7 -2 23 -19 23 -12 0 -12 -2 -2
-14z"/>
<path d="M7976 3321 c-17 -19 -17 -20 3 -30 40 -22 55 -4 28 33 -12 16 -14 16
-31 -3z"/>
<path d="M6626 3315 c-3 -8 -1 -15 3 -15 5 0 11 7 15 15 3 8 1 15 -3 15 -5 0
-11 -7 -15 -15z"/>
<path d="M7046 3315 c-8 -8 -31 -15 -50 -15 -20 0 -36 -4 -36 -10 0 -21 71
-10 96 15 14 14 21 25 15 25 -5 0 -16 -7 -25 -15z"/>
<path d="M8362 3313 c2 -10 10 -18 18 -18 8 0 16 8 18 18 2 12 -3 17 -18 17
-15 0 -20 -5 -18 -17z"/>
<path d="M5760 3270 c0 -5 4 -10 9 -10 6 0 13 5 16 10 3 6 -1 10 -9 10 -9 0
-16 -4 -16 -10z"/>
<path d="M3738 3245 c5 -26 16 -32 27 -15 3 6 1 10 -5 10 -7 0 -10 7 -6 15 3
9 0 15 -8 15 -9 0 -12 -8 -8 -25z"/>
<path d="M7825 3210 c-3 -5 -1 -10 4 -10 6 0 11 5 11 10 0 6 -2 10 -4 10 -3 0
-8 -4 -11 -10z"/>
<path d="M7875 3210 c-4 -6 5 -10 19 -10 14 0 26 5 26 10 0 6 -9 10 -19 10
-11 0 -23 -4 -26 -10z"/>
<path d="M9350 2640 c-8 -5 -11 -12 -7 -16 4 -4 13 -2 19 4 15 15 7 24 -12 12z"/>
<path d="M9368 2163 c7 -3 16 -2 19 1 4 3 -2 6 -13 5 -11 0 -14 -3 -6 -6z"/>
<path d="M6880 2145 c0 -11 11 -15 40 -15 29 0 40 4 40 15 0 11 -11 15 -40 15
-29 0 -40 -4 -40 -15z"/>
<path d="M6288 2073 c7 -3 16 -2 19 1 4 3 -2 6 -13 5 -11 0 -14 -3 -6 -6z"/>
<path d="M6888 2073 c6 -2 18 -2 25 0 6 3 1 5 -13 5 -14 0 -19 -2 -12 -5z"/>
<path d="M6578 2063 c12 -2 32 -2 45 0 12 2 2 4 -23 4 -25 0 -35 -2 -22 -4z"/>
<path d="M4978 1993 c12 -2 32 -2 45 0 12 2 2 4 -23 4 -25 0 -35 -2 -22 -4z"/>
<path d="M4415 1970 c-14 -6 0 -9 45 -8 47 0 58 2 40 8 -33 11 -60 11 -85 0z"/>
<path d="M4123 1963 c9 -2 23 -2 30 0 6 3 -1 5 -18 5 -16 0 -22 -2 -12 -5z"/>
<path d="M4305 1960 c-16 -7 -13 -9 18 -9 20 -1 37 4 37 9 0 12 -27 12 -55 0z"/>
<path d="M0 1942 c0 -11 8 -26 18 -35 20 -18 47 -23 37 -7 -3 6 1 10 9 10 11
0 9 6 -8 25 -27 29 -56 33 -56 7z"/>
<path d="M3687 1913 c18 -2 50 -2 70 0 21 2 7 4 -32 4 -38 0 -55 -2 -38 -4z"/>
<path d="M3388 1903 c18 -2 45 -2 60 0 15 2 0 4 -33 4 -33 0 -45 -2 -27 -4z"/>
<path d="M3488 1903 c7 -3 16 -2 19 1 4 3 -2 6 -13 5 -11 0 -14 -3 -6 -6z"/>
<path d="M3528 1903 c7 -3 16 -2 19 1 4 3 -2 6 -13 5 -11 0 -14 -3 -6 -6z"/>
<path d="M130 1881 c0 -6 6 -11 13 -11 7 0 28 -10 47 -23 33 -22 70 -40 70
-33 0 1 -17 17 -39 34 -42 34 -91 52 -91 33z"/>
</g>
</svg>
