<?xml version="1.0" standalone="no"?>
<!DOCTYPE svg PUBLIC "-//W3C//DTD SVG 20010904//EN"
 "http://www.w3.org/TR/2001/REC-SVG-20010904/DTD/svg10.dtd">
<svg version="1.0" xmlns="http://www.w3.org/2000/svg"
 width="480.000000pt" height="320.000000pt" viewBox="0 0 480.000000 320.000000"
 preserveAspectRatio="xMidYMid meet">

<g transform="translate(0.000000,320.000000) scale(0.100000,-0.100000)"
fill="#000000" stroke="none">
<path d="M71 3178 c18 -34 40 -47 76 -48 22 0 36 6 43 19 18 35 11 44 -15 17
-31 -33 -40 -33 -77 4 -35 36 -43 38 -27 8z"/>
<path d="M220 3195 c0 -17 33 -66 49 -75 32 -17 69 -12 85 12 18 25 21 68 6
68 -5 0 -10 -11 -10 -23 0 -26 -28 -57 -52 -57 -19 0 -58 42 -58 63 0 9 -4 17
-10 17 -5 0 -10 -2 -10 -5z"/>
<path d="M400 3150 c0 -29 3 -50 7 -46 7 7 5 87 -3 95 -2 2 -4 -20 -4 -49z"/>
<path d="M511 3146 c0 -35 3 -56 8 -50 4 5 5 32 1 59 l-7 50 -2 -59z"/>
<path d="M574 3145 c1 -52 4 -60 21 -63 18 -4 19 -3 3 10 -11 8 -19 31 -21 63
-3 44 -4 42 -3 -10z"/>
<path d="M638 3153 c5 -76 10 -83 11 -15 0 34 -2 62 -7 62 -4 0 -6 -21 -4 -47z"/>
<path d="M716 3180 c-3 -14 -2 -38 2 -55 8 -30 9 -30 13 -5 3 14 2 39 -2 55
-6 30 -6 30 -13 5z"/>
<path d="M943 3160 c0 -25 2 -35 4 -22 2 12 2 32 0 45 -2 12 -4 2 -4 -23z"/>
<path d="M2877 3193 c-4 -3 -7 -45 -7 -92 0 -80 -11 -147 -65 -391 -31 -143
-64 -335 -75 -440 -9 -92 -19 -147 -38 -200 -3 -11 -7 -8 -12 10 l-6 25 -9
-25 c-4 -13 -14 -30 -21 -38 -8 -7 -15 -32 -16 -55 0 -23 -2 -53 -4 -67 -1
-14 -7 -83 -13 -155 -14 -164 -54 -383 -92 -503 -17 -50 -33 -115 -36 -144 -4
-31 -14 -59 -25 -70 -11 -11 -18 -22 -15 -24 8 -8 37 8 37 21 0 23 42 30 56
10 7 -10 18 -14 25 -9 8 4 10 3 5 -4 -10 -16 17 -15 32 0 20 20 14 47 -18 78
-38 37 -39 53 -4 40 34 -13 47 -13 42 2 -3 7 -15 13 -29 13 -21 0 -24 4 -22
34 1 18 6 36 11 40 5 3 12 15 14 26 3 14 11 19 26 18 12 -2 22 2 22 7 0 6 -7
10 -15 10 -8 0 -15 5 -15 10 0 6 4 10 9 10 10 0 25 48 22 69 -1 7 6 21 16 31
10 10 27 30 38 44 11 15 26 33 33 41 6 7 12 17 12 22 0 4 9 14 20 21 11 7 20
21 20 33 0 11 4 18 9 15 5 -3 16 5 24 18 19 29 67 41 67 17 0 -14 2 -14 10 -1
6 9 5 17 -3 22 -6 4 -8 10 -4 14 4 4 -11 16 -33 26 -22 10 -40 22 -40 26 0 4
-15 7 -32 7 -31 0 -33 2 -36 42 -3 44 20 147 46 203 55 120 137 201 262 261
97 47 98 48 83 57 -9 6 -9 19 -1 52 6 28 8 115 4 233 -4 119 -2 195 4 207 6
11 7 29 2 42 -5 13 -6 47 -4 76 4 50 5 52 32 52 16 0 31 3 34 8 2 4 -1 58 -7
120 l-11 112 -151 0 c-84 0 -155 -3 -158 -7z"/>
<path d="M3456 3143 c-3 -32 -8 -121 -11 -198 -11 -277 -27 -499 -38 -524 -5
-15 -9 -32 -8 -40 1 -7 -3 -34 -9 -60 -10 -45 -17 -109 -19 -182 -1 -29 -5
-36 -18 -35 -13 1 -19 -8 -21 -27 -5 -38 -22 -42 -71 -17 -23 11 -41 16 -41
10 0 -6 16 -18 36 -27 25 -13 34 -22 31 -35 -3 -10 -1 -18 4 -18 5 0 10 6 10
13 1 6 5 -6 9 -28 15 -78 -8 -155 -46 -155 -10 0 -11 -26 -7 -117 3 -65 10
-124 16 -131 5 -7 7 -15 4 -19 -11 -11 13 -31 31 -26 10 2 26 -5 36 -16 11
-12 30 -21 43 -21 22 0 23 -1 9 -16 -14 -14 -14 -17 3 -36 28 -29 34 -64 16
-98 -19 -38 -19 -57 4 -165 11 -50 25 -139 31 -200 16 -145 25 -177 53 -173
31 4 61 46 63 87 1 20 15 79 31 133 17 53 35 125 41 160 22 125 44 289 40 294
-3 2 -17 -2 -32 -9 -21 -9 -31 -26 -46 -77 -11 -36 -21 -78 -24 -95 -2 -16 -5
-32 -5 -35 -1 -3 -6 3 -12 13 -6 10 -13 52 -16 94 -6 74 -6 75 15 68 30 -9 27
3 -9 37 -17 16 -29 31 -27 32 2 1 18 8 35 15 38 15 63 58 56 94 -4 19 1 28 17
37 12 6 19 14 16 17 -8 8 26 32 45 33 21 0 29 20 29 71 0 68 44 129 57 79 3
-11 8 -18 12 -15 4 2 8 -36 8 -85 1 -73 4 -93 21 -114 29 -38 55 -110 117
-332 52 -188 55 -205 44 -247 -14 -57 1 -185 26 -224 10 -14 30 -30 46 -36 40
-15 38 -44 -3 -55 -28 -7 -33 -13 -33 -38 0 -22 -5 -29 -20 -30 -11 -1 -24 -2
-30 -4 -5 -1 -21 -1 -34 0 -13 1 -21 -3 -17 -8 3 -5 10 -22 16 -37 9 -23 13
-25 26 -14 8 6 12 19 9 26 -3 9 0 13 7 11 7 -3 12 -18 13 -34 0 -24 -4 -29
-25 -30 -14 -1 -74 -5 -133 -9 l-108 -8 -28 27 c-17 16 -27 35 -24 45 5 18
-33 59 -44 48 -3 -4 -2 -17 4 -29 8 -20 3 -82 -8 -93 -2 -2 -75 -6 -161 -10
l-158 -8 0 130 c0 92 -4 134 -13 148 -10 13 -16 15 -21 6 -11 -17 -26 -3 -26
25 0 25 24 34 34 12 9 -19 -4 103 -13 132 -8 22 -16 66 -36 193 -6 37 -18 45
-44 28 -8 -6 -11 -18 -7 -37 12 -56 17 -110 21 -205 2 -69 8 -104 20 -123 12
-19 15 -36 10 -65 -4 -22 -2 -64 4 -93 5 -29 13 -75 16 -101 6 -43 5 -48 -12
-45 -13 2 -21 20 -30 73 -7 39 -17 93 -23 120 -15 72 -19 111 -27 290 -7 131
-11 160 -23 161 -8 1 -20 2 -26 3 -28 3 -25 61 2 61 12 0 13 17 8 98 -6 112
-20 231 -30 255 -3 9 -2 17 4 17 5 0 12 -17 16 -37 3 -21 11 -60 16 -88 6 -27
16 -86 21 -130 6 -44 11 -80 12 -81 1 -1 16 -4 32 -7 l30 -6 -2 87 c-1 48 3
106 10 130 8 32 8 47 0 61 -9 14 -8 22 5 36 9 10 12 15 6 11 -15 -8 -25 18
-30 78 -2 26 -8 54 -14 61 -8 9 -8 15 0 20 17 11 -16 35 -49 35 -34 0 -61 -22
-61 -51 0 -12 -10 -23 -25 -29 -28 -11 -29 -17 -15 -54 7 -19 6 -24 -4 -20
-18 7 -41 -25 -57 -78 -7 -27 -17 -48 -20 -48 -4 0 -13 -17 -20 -37 -11 -37
-39 -93 -50 -103 -12 -11 -89 -162 -89 -176 0 -7 -16 -34 -35 -60 -37 -49 -44
-84 -20 -104 17 -14 20 -40 6 -40 -5 0 -13 9 -16 20 -3 11 -9 20 -13 20 -26
-1 -66 -71 -57 -100 5 -15 3 -18 -9 -14 -15 6 -46 -41 -46 -71 0 -8 -4 -15
-10 -15 -5 0 -10 -9 -10 -20 0 -11 -4 -20 -8 -20 -5 0 -14 -16 -20 -37 -14
-47 -1 -73 36 -73 16 0 33 -5 40 -12 14 -14 16 1 6 39 -7 26 -24 31 -24 7 0
-21 -34 -14 -38 9 -2 10 3 17 11 17 22 0 48 45 35 58 -14 14 -4 27 12 17 7 -5
9 -20 6 -39 -5 -26 0 -40 24 -72 16 -21 30 -47 30 -57 0 -31 27 -73 67 -103
l38 -29 -45 -7 c-25 -3 -88 -7 -140 -7 l-95 -1 0 110 c0 74 -4 113 -12 122
-15 14 -17 84 -3 93 6 3 10 21 10 40 0 19 5 37 10 40 6 3 10 14 10 25 0 15 -9
19 -52 22 -55 4 -71 -4 -82 -37 -6 -20 -37 -57 -73 -86 -17 -14 -20 -14 -35 0
-18 18 -69 156 -61 165 3 3 -4 20 -16 39 -11 19 -21 41 -21 48 0 8 -6 25 -13
39 -8 14 -19 48 -26 75 -7 28 -19 60 -27 73 -11 17 -15 54 -15 142 0 112 1
121 25 153 14 18 37 57 52 87 14 30 35 71 45 90 22 40 23 68 8 125 -13 46 -73
125 -96 125 -19 0 -73 32 -73 43 0 5 7 6 16 3 8 -3 12 -2 9 4 -3 6 -15 10 -25
10 -10 0 -22 5 -25 10 -3 6 -18 10 -33 10 -19 0 -23 3 -14 9 11 6 9 14 -10 33
-69 74 -158 68 -281 -16 -83 -57 -107 -87 -101 -127 4 -33 4 -33 -11 -14 -9
11 -20 25 -23 32 -12 21 -50 3 -61 -29 -8 -23 -15 -28 -30 -23 -12 3 -42 -4
-73 -18 -29 -14 -71 -28 -92 -32 -34 -6 -108 -38 -221 -98 -16 -9 -70 -27
-120 -41 -245 -68 -505 -195 -505 -248 0 -12 -84 -153 -121 -203 -20 -27 -54
-66 -74 -85 -21 -19 -53 -66 -71 -105 -28 -56 -34 -81 -34 -133 0 -34 7 -79
15 -98 14 -35 14 -37 -13 -68 -15 -17 -62 -49 -104 -70 -73 -37 -78 -42 -78
-72 0 -24 5 -34 20 -39 11 -3 25 -15 30 -26 10 -17 7 -19 -22 -20 -21 -1 -5
-6 41 -15 41 -7 80 -15 87 -18 10 -4 12 -58 11 -230 -1 -125 0 -226 3 -226 3
0 37 32 75 70 38 39 72 70 75 70 3 0 17 -11 32 -25 15 -14 29 -25 32 -25 3 0
3 19 1 43 -6 55 2 77 26 77 12 0 19 7 19 19 0 10 9 30 20 43 19 25 19 26 0 48
-14 16 -20 38 -20 71 l0 49 47 -6 c27 -2 65 -7 85 -9 49 -7 76 5 153 65 70 54
77 57 94 36 8 -9 48 -16 129 -21 87 -5 135 -13 187 -32 85 -31 131 -39 148
-25 27 22 84 33 112 22 15 -6 29 -9 31 -7 2 2 -17 50 -41 106 -25 57 -42 107
-39 112 16 26 36 -1 80 -108 52 -128 67 -153 96 -153 10 0 19 -4 19 -10 6 -45
5 -45 -51 -43 -48 2 -59 7 -81 33 -33 38 -41 38 -37 -2 3 -33 4 -33 68 -40
252 -26 408 -40 640 -58 332 -25 591 -47 790 -65 85 -8 214 -19 285 -25 72 -6
261 -22 420 -35 160 -14 430 -37 600 -50 171 -14 375 -32 454 -40 79 -8 152
-15 162 -15 18 0 19 17 19 463 0 460 0 464 -22 508 -32 63 -32 165 0 208 21
29 22 38 20 177 l-3 145 -52 -123 c-55 -130 -123 -304 -123 -313 0 -11 -65
-142 -92 -186 -15 -25 -28 -55 -28 -67 0 -14 27 -42 84 -86 88 -68 188 -174
179 -189 -3 -4 -10 -2 -16 5 -24 27 -70 62 -61 47 5 -9 26 -31 47 -48 27 -24
37 -41 37 -62 0 -29 0 -29 -67 -31 -80 -2 -146 2 -153 9 -3 2 3 9 13 14 9 6
17 19 17 30 0 15 -5 18 -22 14 -33 -8 -92 47 -83 77 6 17 4 20 -10 14 -14 -5
-16 -2 -11 14 3 11 9 29 12 40 5 16 2 20 -15 20 -25 0 -26 3 -5 35 16 25 16
25 -15 25 -25 0 -31 4 -31 23 0 12 -4 29 -9 36 -8 12 -13 11 -29 -9 -18 -22
-22 -23 -38 -10 -12 9 -10 4 4 -12 13 -14 19 -28 14 -31 -4 -4 -30 20 -55 51
-26 31 -52 62 -57 69 -6 7 -10 19 -10 28 0 8 -9 15 -20 15 -14 0 -21 9 -25 38
-13 80 -17 92 -38 124 -25 37 -28 112 -8 186 13 47 16 159 6 192 -3 10 -16 22
-28 26 -12 3 -35 16 -52 29 -44 32 -176 102 -207 109 -27 6 -41 29 -15 23 7
-1 13 10 15 27 2 16 0 26 -6 22 -19 -11 0 78 24 114 47 71 57 198 20 254 -28
43 -119 104 -177 120 -43 11 -54 18 -53 34 0 14 -4 18 -15 14 -11 -4 -13 -1
-7 14 5 10 11 50 14 88 4 52 2 70 -9 77 -9 6 -10 9 -2 9 9 0 11 30 7 120 -5
122 -12 156 -36 181 -16 17 -48 66 -48 74 0 4 17 -7 37 -24 43 -36 62 -38 106
-13 18 9 34 18 36 19 2 1 -15 23 -38 49 -22 26 -41 51 -41 56 0 5 -8 8 -17 6
-11 -2 -17 2 -15 10 3 15 -15 35 -40 45 -10 3 -18 13 -18 21 0 7 -7 17 -16 20
-8 3 -12 10 -9 16 9 15 35 12 35 -3 0 -8 11 -19 25 -25 25 -11 25 -11 25 33 0
44 0 45 -34 45 -23 0 -36 -6 -41 -17 -6 -17 -7 -17 -19 0 -8 10 -26 17 -44 17
-29 0 -30 -1 -36 -57z m184 -149 c0 -8 -4 -12 -10 -9 -5 3 -10 10 -10 16 0 5
5 9 10 9 6 0 10 -7 10 -16z m85 -860 c-2 -20 3 -47 11 -62 13 -25 10 -68 -6
-85 -4 -5 -20 -10 -34 -11 -21 -3 -26 0 -21 12 4 12 -1 13 -26 8 -17 -3 -39
-1 -50 4 -20 11 -26 54 -9 65 6 3 10 14 10 24 0 19 43 65 52 55 8 -7 48 5 47
14 -3 16 2 21 15 16 10 -4 13 -17 11 -40z m95 -58 c0 -17 -26 -39 -38 -32 -5
3 -12 15 -15 26 -4 17 0 20 24 20 18 0 29 -5 29 -14z m-2155 -45 c3 -6 -4 -15
-15 -21 -20 -11 -21 -10 -10 9 12 23 16 25 25 12z m362 -87 c-3 -3 -12 -4 -19
-1 -8 3 -5 6 6 6 11 1 17 -2 13 -5z m-17 -34 c7 -12 16 -17 28 -13 14 5 15 3
5 -8 -18 -19 -16 -28 10 -39 16 -6 18 -9 5 -9 -11 -1 -20 -12 -24 -28 -12 -49
-37 -83 -61 -83 -26 0 -39 34 -28 71 5 14 2 25 -6 30 -11 7 -10 9 4 9 9 0 17
5 17 10 0 6 -4 10 -10 10 -5 0 -10 13 -10 29 0 25 3 28 28 24 21 -4 24 -2 12
6 -13 9 -13 11 2 11 10 0 22 -9 28 -20z m-520 0 c0 -5 -15 -9 -32 -9 l-33 1
30 8 c17 4 31 8 33 9 1 0 2 -3 2 -9z m1857 -12 c-3 -8 -6 -5 -6 6 -1 11 2 17
5 13 3 -3 4 -12 1 -19z m-1821 -22 c-4 -17 -14 -26 -31 -28 l-25 -3 26 -29
c24 -25 25 -29 10 -38 -58 -33 -68 -50 -73 -140 -7 -114 -1 -138 36 -138 23 0
36 9 59 41 25 34 31 54 37 117 3 43 11 102 18 134 l13 56 -35 -26 c-30 -24
-34 -24 -27 -7 5 11 11 28 14 38 3 14 12 18 30 14 18 -3 26 0 29 14 3 11 9 19
14 19 9 0 2 -54 -11 -85 -16 -34 -37 -215 -24 -203 8 9 74 -67 74 -85 0 -26
76 -85 117 -92 61 -9 88 -20 85 -35 -5 -20 19 -60 35 -60 7 0 13 -4 13 -10 0
-5 -9 -10 -20 -10 -11 0 -20 -4 -20 -9 0 -5 -8 -11 -17 -15 -10 -3 -32 -14
-48 -24 -32 -20 -125 -35 -125 -21 0 5 -17 9 -37 9 -27 0 -45 8 -66 28 l-29
27 16 -32 c9 -18 13 -33 9 -33 -21 1 -37 24 -73 99 -43 95 -50 103 -50 70 l-1
-24 -13 24 c-10 17 -15 20 -18 10 -3 -8 -10 4 -17 26 -14 51 -14 72 0 77 6 2
12 30 13 63 2 33 8 88 16 121 11 50 16 60 30 57 28 -7 35 17 11 34 -36 25 -16
83 28 83 12 0 21 5 21 12 0 6 3 9 6 5 4 -3 4 -17 0 -31z m-121 4 c-10 -11 -21
-18 -23 -15 -3 3 3 12 14 20 27 20 30 18 9 -5z m-50 -70 c-18 -51 -21 -154 -7
-201 6 -19 15 -69 20 -111 7 -60 17 -89 42 -128 18 -28 31 -52 29 -54 -17 -15
-53 -26 -60 -19 -4 4 -10 22 -13 39 -3 17 -12 49 -20 70 -22 64 -39 221 -31
298 3 39 15 90 27 114 25 54 33 49 13 -8z m202 -52 c-3 -7 -5 -2 -5 12 0 14 2
19 5 13 2 -7 2 -19 0 -25z m1757 -112 c1 -31 -1 -56 -6 -56 -4 0 -8 12 -8 28
0 15 -3 45 -6 67 -5 31 -4 37 6 29 6 -7 13 -37 14 -68z m-1434 -16 c0 -5 -2
-10 -4 -10 -3 0 -8 5 -11 10 -3 6 -1 10 4 10 6 0 11 -4 11 -10z m-120 -163
c13 -10 18 -17 11 -17 -17 0 -91 59 -91 73 0 6 12 -1 28 -15 15 -14 38 -32 52
-41z m15 43 c3 -5 1 -10 -4 -10 -6 0 -11 5 -11 10 0 6 2 10 4 10 3 0 8 -4 11
-10z m45 -32 c0 -6 -6 -5 -15 2 -8 7 -15 14 -15 16 0 2 7 1 15 -2 8 -4 15 -11
15 -16z m120 -85 c0 -17 -23 -41 -35 -37 -18 7 -20 41 -2 47 13 4 37 -2 37
-10z m-520 -145 c12 -13 29 -31 38 -41 16 -17 16 -20 -2 -50 -18 -30 -25 -61
-42 -179 -9 -62 -24 -62 -24 0 0 43 -11 153 -25 255 -5 32 -3 37 15 37 11 0
29 -10 40 -22z m245 -8 c-3 -5 -15 -10 -26 -10 -10 0 -19 5 -19 10 0 6 12 10
26 10 14 0 23 -4 19 -10z m-43 -83 c7 -13 13 -15 28 -7 30 16 36 -11 34 -150
-3 -180 -14 -254 -46 -287 -14 -16 -29 -37 -33 -48 -7 -16 -10 -8 -17 35 -5
30 -13 80 -18 110 -5 30 -12 109 -16 175 -5 97 -4 127 9 157 16 39 42 45 59
15z m1425 12 c16 -16 5 -39 -18 -39 -12 0 -19 7 -19 18 0 31 17 41 37 21z
m-19 -122 c4 -22 -27 -35 -38 -16 -10 15 7 42 24 36 6 -2 12 -11 14 -20z m16
-96 c10 -16 -6 -42 -23 -39 -9 2 -17 13 -19 26 -3 16 2 22 17 22 11 0 22 -4
25 -9z m1231 -31 c3 -5 1 -10 -4 -10 -6 0 -11 5 -11 10 0 6 2 10 4 10 3 0 8
-4 11 -10z m-1135 -55 c-1 -36 -51 -47 -58 -12 -6 29 16 48 39 34 10 -6 19
-16 19 -22z m1175 25 c3 -5 15 -10 26 -10 10 0 19 -5 19 -11 0 -7 -14 -8 -42
-4 -55 9 -67 17 -42 26 27 11 32 10 39 -1z m85 -60 c0 -5 -2 -10 -4 -10 -3 0
-8 5 -11 10 -3 6 -1 10 4 10 6 0 11 -4 11 -10z m-2021 -94 c0 -44 -4 -103 -7
-131 l-7 -50 -46 -9 c-26 -5 -54 -6 -63 -3 -15 6 -13 12 10 46 18 28 29 62 35
117 12 93 21 112 54 112 25 0 25 -1 24 -82z m1907 69 c17 -16 14 -18 -10 -9
-9 3 -16 10 -16 15 0 13 9 11 26 -6z m114 -35 c0 -5 -2 -10 -4 -10 -3 0 -8 5
-11 10 -3 6 -1 10 4 10 6 0 11 -4 11 -10z m30 -21 c0 -5 -7 -9 -15 -9 -9 0
-12 6 -9 15 6 15 24 11 24 -6z m-2625 -28 c40 -19 93 -67 83 -76 -3 -3 -23 11
-44 30 -21 20 -59 42 -84 50 -32 10 -38 14 -20 14 14 0 43 -8 65 -18z m2275
-1 c0 -5 -4 -10 -9 -10 -6 0 -13 5 -16 10 -3 6 1 10 9 10 9 0 16 -4 16 -10z
m-2319 -63 c-10 -9 -11 -8 -5 6 3 10 9 15 12 12 3 -3 0 -11 -7 -18z m-57 -3
c5 -14 4 -15 -9 -4 -11 9 -15 9 -15 1 0 -7 -4 -10 -8 -7 -5 3 -6 -22 -4 -55 2
-32 2 -59 -2 -59 -3 0 -14 8 -24 18 -17 16 -17 19 -3 51 12 26 13 35 4 38 -10
4 -10 7 0 18 17 20 54 18 61 -1z m146 -4 c0 -5 -5 -10 -11 -10 -5 0 -7 5 -4
10 3 6 8 10 11 10 2 0 4 -4 4 -10z m-80 -48 c0 -43 -6 -53 -26 -45 -19 7 -18
29 2 37 10 4 13 13 9 26 -4 11 -2 20 4 20 6 0 11 -17 11 -38z m89 -19 c-1 -34
-2 -35 -9 -13 -11 36 -11 50 0 50 6 0 10 -17 9 -37z m-43 -5 c-16 -22 -16 -22
-16 -1 0 12 6 23 13 26 19 7 20 0 3 -25z m1854 7 c0 -8 -4 -15 -10 -15 -5 0
-10 7 -10 15 0 8 5 15 10 15 6 0 10 -7 10 -15z m-3386 -60 c13 -10 22 -34 27
-72 9 -65 4 -93 -17 -93 -17 0 -17 1 -3 -39 6 -17 8 -43 5 -56 -5 -20 -13 -25
-37 -25 -26 0 -30 3 -27 23 2 12 7 20 13 17 5 -3 9 -11 7 -17 -2 -7 2 -13 8
-13 10 0 14 21 10 49 -1 8 -12 31 -26 52 -31 49 -31 93 -1 114 22 16 21 17
-13 10 -33 -7 -34 -7 -20 11 46 61 46 60 74 39z m1513 -32 c-3 -10 -5 -4 -5
12 0 17 2 24 5 18 2 -7 2 -21 0 -30z m50 0 c-3 -10 -5 -4 -5 12 0 17 2 24 5
18 2 -7 2 -21 0 -30z m-17 -1 c0 -15 -2 -15 -10 -2 -13 20 -13 33 0 25 6 -3
10 -14 10 -23z m97 -4 c-3 -7 -5 -2 -5 12 0 14 2 19 5 13 2 -7 2 -19 0 -25z
m-298 -19 c-20 -12 -26 -11 -26 6 0 8 4 12 8 9 4 -2 11 1 15 8 6 9 9 9 12 -1
2 -7 -2 -17 -9 -22z m130 5 c2 -2 -15 -4 -38 -4 -25 0 -40 4 -36 10 5 8 63 3
74 -6z m1998 -170 c-3 -3 -12 -4 -19 -1 -8 3 -5 6 6 6 11 1 17 -2 13 -5z"/>
<path d="M3615 2010 c-3 -5 1 -10 9 -10 9 0 16 5 16 10 0 6 -4 10 -9 10 -6 0
-13 -4 -16 -10z"/>
<path d="M1441 1474 c0 -11 3 -14 6 -6 3 7 2 16 -1 19 -3 4 -6 -2 -5 -13z"/>
<path d="M995 3179 c-11 -16 -2 -17 25 -2 24 12 24 13 3 13 -12 0 -25 -5 -28
-11z"/>
<path d="M820 3144 c0 -8 5 -12 10 -9 6 4 8 11 5 16 -9 14 -15 11 -15 -7z"/>
<path d="M750 3146 c0 -2 13 -6 29 -8 17 -2 28 -1 25 4 -5 8 -54 12 -54 4z"/>
<path d="M1074 3129 c-3 -6 -1 -16 5 -22 8 -8 11 -5 11 11 0 24 -5 28 -16 11z"/>
<path d="M1001 3111 c-7 -5 -12 -13 -10 -18 2 -6 13 -2 23 8 20 19 12 26 -13
10z"/>
<path d="M800 3070 c-14 -11 -20 -20 -14 -20 14 0 50 27 44 33 -3 3 -16 -3
-30 -13z"/>
<path d="M1078 3066 c-3 -14 0 -27 7 -29 7 -3 10 5 7 24 -5 35 -8 36 -14 5z"/>
<path d="M999 3048 c7 -10 25 -17 40 -17 l26 2 -25 4 c-14 3 -32 10 -40 16
-13 11 -13 10 -1 -5z"/>
<path d="M3805 2720 c-3 -5 -1 -10 4 -10 6 0 11 5 11 10 0 6 -2 10 -4 10 -3 0
-8 -4 -11 -10z"/>
<path d="M3747 2621 c-6 -44 9 -62 54 -64 31 -2 34 1 37 30 3 27 0 31 -17 26
-13 -3 -29 4 -45 20 l-24 24 -5 -36z"/>
<path d="M891 2637 c-6 -8 -13 -29 -16 -48 -5 -33 -5 -33 7 5 7 22 22 42 33
47 15 6 16 8 4 8 -9 1 -22 -5 -28 -12z"/>
<path d="M980 2570 c0 -40 3 -70 7 -67 7 7 5 129 -3 136 -2 2 -4 -29 -4 -69z"/>
<path d="M1036 2624 c-9 -23 -4 -24 17 -2 13 14 14 18 3 18 -8 0 -17 -7 -20
-16z"/>
<path d="M1481 2574 c0 -11 3 -14 6 -6 3 7 2 16 -1 19 -3 4 -6 -2 -5 -13z"/>
<path d="M1020 2566 c0 -9 7 -12 21 -9 16 4 17 8 7 14 -19 13 -28 11 -28 -5z"/>
<path d="M1361 2554 c0 -11 3 -14 6 -6 3 7 2 16 -1 19 -3 4 -6 -2 -5 -13z"/>
<path d="M881 2534 c0 -11 3 -14 6 -6 3 7 2 16 -1 19 -3 4 -6 -2 -5 -13z"/>
<path d="M1116 2503 c-6 -14 -5 -15 5 -6 7 7 10 15 7 18 -3 3 -9 -2 -12 -12z"/>
<path d="M1361 2494 c0 -11 3 -14 6 -6 3 7 2 16 -1 19 -3 4 -6 -2 -5 -13z"/>
<path d="M1751 2474 c0 -11 3 -14 6 -6 3 7 2 16 -1 19 -3 4 -6 -2 -5 -13z"/>
<path d="M3730 2450 c-8 -5 -24 -7 -34 -4 -15 5 -18 3 -13 -11 4 -9 7 -21 7
-26 0 -5 34 -9 75 -9 73 0 75 1 75 24 0 21 -4 24 -32 23 -18 0 -40 2 -48 6 -8
4 -22 2 -30 -3z"/>
<path d="M3245 2192 c6 -7 26 -15 45 -18 26 -5 32 -4 25 4 -6 7 -26 15 -45 18
-26 5 -32 4 -25 -4z"/>
<path d="M600 2067 c0 -72 4 -107 11 -107 12 0 7 195 -5 207 -3 4 -6 -42 -6
-100z"/>
<path d="M883 2095 c0 -38 2 -53 4 -32 2 20 2 52 0 70 -2 17 -4 1 -4 -38z"/>
<path d="M506 2101 c-29 -32 -32 -91 -6 -123 12 -16 29 -28 38 -27 14 0 14 2
2 6 -26 9 -40 36 -40 77 0 49 7 62 40 75 23 9 23 10 4 10 -11 1 -29 -8 -38
-18z"/>
<path d="M652 2052 c-2 -73 10 -102 41 -101 l22 0 -22 9 c-24 10 -31 29 -36
105 -3 46 -4 45 -5 -13z"/>
<path d="M751 2033 c0 -43 3 -73 9 -73 12 0 12 36 1 100 -8 43 -9 41 -10 -27z"/>
<path d="M1022 2050 c0 -19 2 -27 5 -17 2 9 2 25 0 35 -3 9 -5 1 -5 -18z"/>
<path d="M1361 2064 c0 -11 3 -14 6 -6 3 7 2 16 -1 19 -3 4 -6 -2 -5 -13z"/>
<path d="M3087 2060 c-72 -36 -150 -147 -164 -235 -6 -40 8 -51 43 -33 31 16
59 85 42 105 -14 17 -1 83 17 83 7 0 19 -16 26 -35 7 -19 15 -35 19 -35 3 0
19 13 37 28 26 22 33 37 39 85 7 65 3 68 -59 37z"/>
<path d="M3220 2030 c0 -5 5 -10 11 -10 5 0 7 5 4 10 -3 6 -8 10 -11 10 -2 0
-4 -4 -4 -10z"/>
<path d="M932 1990 c0 -19 2 -27 5 -17 2 9 2 25 0 35 -3 9 -5 1 -5 -18z"/>
<path d="M892 1980 c0 -14 2 -19 5 -12 2 6 2 18 0 25 -3 6 -5 1 -5 -13z"/>
<path d="M1020 1980 c0 -11 4 -20 9 -20 5 0 7 9 4 20 -3 11 -7 20 -9 20 -2 0
-4 -9 -4 -20z"/>
<path d="M1361 1974 c0 -11 3 -14 6 -6 3 7 2 16 -1 19 -3 4 -6 -2 -5 -13z"/>
<path d="M3860 1910 c0 -5 5 -10 10 -10 6 0 10 5 10 10 0 6 -4 10 -10 10 -5 0
-10 -4 -10 -10z"/>
<path d="M15 1890 c-4 -6 -3 -16 3 -22 6 -6 12 -6 17 2 4 6 3 16 -3 22 -6 6
-12 6 -17 -2z"/>
<path d="M2960 1709 c0 -5 5 -7 10 -4 6 3 10 8 10 11 0 2 -4 4 -10 4 -5 0 -10
-5 -10 -11z"/>
<path d="M3683 1645 c-13 -31 -21 -141 -11 -151 8 -7 30 129 26 158 -3 22 -4
21 -15 -7z"/>
<path d="M2832 1579 c2 -6 8 -10 13 -10 5 0 11 4 13 10 2 6 -4 11 -13 11 -9 0
-15 -5 -13 -11z"/>
<path d="M2788 1533 c-32 -8 -19 -19 17 -15 19 2 35 8 35 13 0 9 -22 10 -52 2z"/>
<path d="M2610 1240 c0 -5 5 -10 11 -10 5 0 7 5 4 10 -3 6 -8 10 -11 10 -2 0
-4 -4 -4 -10z"/>
<path d="M3271 1105 c0 -16 4 -39 9 -50 7 -17 9 -16 9 10 0 17 -4 39 -9 50 -7
17 -9 16 -9 -10z"/>
<path d="M3494 750 c-19 -7 -20 -13 -13 -69 8 -74 21 -91 65 -91 l34 0 -4 44
c-3 26 -16 62 -32 85 -14 23 -27 41 -28 40 0 0 -10 -4 -22 -9z"/>
<path d="M997 516 c-28 -21 -20 -26 41 -25 56 1 57 1 22 12 -19 6 -37 14 -40
18 -3 4 -13 2 -23 -5z"/>
<path d="M1285 480 c3 -5 21 -10 38 -9 27 0 29 2 12 9 -28 12 -57 12 -50 0z"/>
<path d="M408 233 c7 -3 16 -2 19 1 4 3 -2 6 -13 5 -11 0 -14 -3 -6 -6z"/>
<path d="M410 166 c0 -24 17 -28 23 -6 3 13 0 20 -9 20 -8 0 -14 -6 -14 -14z"/>
</g>
</svg>
